<svg width="330" height="435" viewBox="0 0 330 435" fill="none" xmlns="http://www.w3.org/2000/svg">
<g clip-path="url(#clip0)">
<path d="M143.93 0.0661621L78.5981 15.5908C73.9596 17.9264 69.9369 20.2654 66.5734 22.4001L66.5729 22.4007C56.8122 30.7458 50.5109 42.4752 49.1359 55.2426C48.7228 59.0779 48.4761 62.7772 48.4761 66.0515C48.4761 145.542 115.51 209.965 195 209.965C213.643 209.965 233.565 204.523 251.442 196.282C270.389 187.548 283.724 169.929 287.096 149.34L287.858 144.686C287.858 144.686 287.858 144.686 287.858 144.686C288.232 64.8791 223.65 0.0661621 143.93 0.0661621V0.0661621Z" fill="#4F6F6C"/>
<path d="M253.862 193.343C235.891 201.412 215.964 205.902 194.988 205.902C148.18 205.902 106.598 183.553 80.3117 148.949H10.6113V190.97C32.0478 243.535 82.8042 286.075 143.076 286.075C193.784 286.075 239.492 260.949 265.413 221.205C267.839 217.486 270.158 213.319 272.208 209.334L267.23 200.199L253.862 193.343Z" fill="#4F6F6C"/>
<path d="M66.574 22.4019C58.6336 27.4417 54.3615 31.343 54.3282 31.3616L10.8992 188.116C58.7392 185.518 97.0725 147.185 99.67 99.345V88.9781C98.2228 62.3195 85.6755 38.6174 66.574 22.4019V22.4019Z" fill="#F4A120"/>
<path d="M51.0578 61.9724C51.0578 51.4655 52.1906 41.2279 54.3287 31.3611C53.968 31.6484 53.609 31.9374 53.2512 32.2275L7.77669 160.482L9.7443 188.116C20.0135 187.843 55.8955 184.394 81.287 150.222C62.3436 125.85 51.0578 95.2309 51.0578 61.9724V61.9724Z" fill="#F4A120"/>
<path d="M53.2591 32.2375C53.1084 32.36 52.9583 32.745 52.8087 33.2942C51.4682 38.2109 50.8778 43.3015 50.8778 48.3978V134.145L71.5879 136.084C79.3115 123.973 83.7874 109.59 83.7874 94.1606C83.7869 68.9362 71.821 46.5103 53.2591 32.2375V32.2375Z" fill="#4F6F6C"/>
<path d="M51.8474 46.949C51.8627 46.8028 51.8734 46.6555 51.8892 46.5093C52.3876 41.8867 53.1055 37.3294 54.0272 32.8462C53.771 32.6441 53.5181 32.4375 53.2591 32.2383C50.1586 34.7568 47.1655 37.4017 44.2863 40.1651C43.1478 41.2579 42.8419 42.5459 43.1699 43.8638C43.7603 46.2373 46.1608 47.7008 48.5856 47.3803L51.8474 46.949Z" fill="#172312"/>
<path d="M64.4901 122.727H10.8596V172.053C11.1853 172.031 11.5144 172.021 11.8395 171.996C36.9668 170.046 58.7566 156.199 71.5861 136.083C68.9931 131.774 66.6293 127.314 64.4901 122.727V122.727Z" fill="#172312"/>
<path d="M44.2863 40.165C17.0012 66.3574 -4.76837e-06 103.188 -4.76837e-06 143.996C-4.76837e-06 149.524 0.322849 154.976 0.929612 160.342C2.51058 160.455 4.10623 160.515 5.71598 160.515C42.3628 160.515 72.0704 130.807 72.0704 94.1607C72.0698 71.9007 61.1069 52.2015 44.2863 40.165V40.165Z" fill="white"/>
<path d="M51.0578 61.9724C51.0578 56.7469 51.3389 51.5881 51.8841 46.5082C49.5147 44.2121 46.977 42.0893 44.2869 40.1646C38.366 45.8484 32.9311 52.0345 28.0471 58.6519C28.033 58.6711 28.0189 58.6903 28.0042 58.7095C28.0054 58.7507 28.0104 58.7896 28.0104 58.832V105.623C28.0104 110.429 22.4344 111.634 19.6219 109.254V159.051C39.5316 154.804 56.1349 141.628 65.0371 123.914C56.0779 105.152 51.0578 84.1495 51.0578 61.9724V61.9724Z" fill="#E6DCDC"/>
<path d="M100.795 88.9781H91.0906C83.446 88.9781 76.1462 85.7987 70.9399 80.2012C65.7336 74.6038 58.4332 71.4243 50.7892 71.4243H50.7536V116.899H50.7892C58.4338 116.899 65.7336 113.719 70.9399 108.122C76.1462 102.524 83.4465 99.345 91.0906 99.345H100.795C100.889 97.6286 99.8105 95.9014 99.8105 94.1618C99.8105 92.4217 100.889 90.694 100.795 88.9781V88.9781Z" fill="#262F61"/>
<path d="M51.3761 71.439C51.1803 71.4351 50.985 71.4238 50.7886 71.4238H28.4529V58.1145C25.3254 62.311 22.4361 66.643 19.6371 71.4238H19.636C17.3483 75.3319 15.2413 79.3568 13.3256 83.4856L3.47295 112.506C0.0513723 127.792 -0.927914 143.913 0.929626 160.341V160.342C7.63111 160.82 14.06 160.286 20.1293 158.942C25.4406 153.768 28.4529 146.667 28.4529 139.234V116.898H50.7891C54.3665 116.898 57.8654 116.193 61.1126 114.879C55.7364 101.289 52.3679 86.6899 51.3761 71.439Z" fill="#262F61"/>
<path d="M5.71538 117.452C9.70816 106.662 18.2158 98.154 29.006 94.1613C22.9141 91.9069 17.5509 88.2122 13.3154 83.4817C10.6756 89.1683 8.39868 95.0565 6.51123 101.116C5.34794 104.85 4.33253 108.649 3.47121 112.506C4.32293 114.094 5.08209 115.741 5.71538 117.452V117.452Z" fill="#A09088"/>
<path d="M199.089 0.206787H188.722C140.881 2.8043 102.548 41.1376 99.951 88.9776V99.3444C102.548 147.184 140.882 185.518 188.722 188.115H199.089C246.929 185.518 285.262 147.184 287.859 99.3444V88.9776C285.262 41.1376 246.929 2.8043 199.089 0.206787V0.206787Z" fill="#F4A120"/>
<path d="M193.905 172.233C237.023 172.233 271.976 137.279 271.976 94.1613C271.976 51.0436 237.023 16.0898 193.905 16.0898C150.787 16.0898 115.833 51.0436 115.833 94.1613C115.833 137.279 150.787 172.233 193.905 172.233Z" fill="#4F6F6C"/>
<path d="M193.905 160.516C230.551 160.516 260.259 130.808 260.259 94.1613C260.259 57.5148 230.551 27.8069 193.905 27.8069C157.258 27.8069 127.55 57.5148 127.55 94.1613C127.55 130.808 157.258 160.516 193.905 160.516Z" fill="white"/>
<path d="M193.905 0.0661621C192.165 0.0661621 190.438 0.116961 188.722 0.210092V8.78605C188.722 16.4307 185.542 23.7305 179.945 28.9368C174.347 34.1431 171.168 41.4434 171.168 49.0875V139.234C171.168 146.878 174.347 154.178 179.945 159.385C185.542 164.591 188.722 171.891 188.722 179.535V188.111C190.438 188.204 192.165 188.255 193.905 188.255C195.645 188.255 197.372 188.204 199.088 188.111V179.535C199.088 171.891 202.268 164.591 207.865 159.385C213.462 154.178 216.642 146.878 216.642 139.234V49.0881C216.642 41.4434 213.462 34.1436 207.865 28.9373C202.268 23.731 199.088 16.4307 199.088 8.78661V0.210092C197.372 0.116961 195.645 0.0661621 193.905 0.0661621V0.0661621Z" fill="#262F61"/>
<path d="M259.129 80.2007C253.923 74.6033 246.623 71.4238 238.979 71.4238H148.832C141.187 71.4238 133.887 74.6033 128.681 80.2007C123.475 85.7982 116.174 88.9776 108.53 88.9776H99.9544C99.8613 90.6941 99.8105 92.4212 99.8105 94.1608C99.8105 95.9004 99.8613 97.6281 99.9544 99.3439H108.53C116.175 99.3439 123.475 102.523 128.681 108.121C133.887 113.718 141.188 116.898 148.832 116.898H238.978C246.623 116.898 253.923 113.718 259.129 108.121C264.335 102.523 271.635 99.3439 279.28 99.3439H287.856C287.949 97.6275 287.999 95.9004 287.999 94.1608C287.999 92.4212 287.949 90.6935 287.856 88.9776H279.28C271.635 88.9782 264.336 85.7982 259.129 80.2007Z" fill="#262F61"/>
<path d="M193.905 70.8706C197.898 81.6608 206.405 90.1685 217.196 94.1613C206.405 98.154 197.898 106.662 193.905 117.452C189.912 106.662 181.405 98.154 170.614 94.1613C181.405 90.1685 189.912 81.6608 193.905 70.8706Z" fill="#A09088"/>
<path d="M89.7732 277.36H99.6699V277.167C97.0724 229.327 58.7391 190.994 10.8991 188.396H10.6113V198.265C11.489 200.419 12.4169 202.547 13.3945 204.647L83.4059 274.607C85.4988 275.578 87.6267 276.487 89.7732 277.36V277.36Z" fill="#F4A120"/>
<path d="M13.3797 204.654C15.4461 209.094 17.7326 213.411 20.2246 217.591L70.46 267.776C74.6424 270.264 78.962 272.546 83.4047 274.608C79.7658 237.647 50.3522 208.257 13.3797 204.654Z" fill="#172312"/>
<path d="M20.224 217.592C32.5196 238.215 49.8233 255.501 70.46 267.776C64.8643 242.81 45.1995 223.163 20.224 217.592V217.592Z" fill="#E6DCDC"/>
<path d="M0.768714 158.892C1.81291 169.016 3.92049 178.881 6.95036 188.274C6.95148 188.277 6.95261 188.28 6.95374 188.283C6.95431 188.286 6.95487 188.288 6.95544 188.289C8.15993 192.017 9.50948 195.68 11.003 199.267C10.9397 198.507 10.8985 197.744 10.8985 196.975V179.536C10.8985 171.891 14.078 164.591 19.6754 159.385C19.8482 159.225 20.0113 159.056 20.1795 158.891H0.768714V158.892Z" fill="#262F61"/>
<path d="M238.196 199.315C226.43 193.024 213.172 189.161 199.089 188.396H188.722C174.763 189.154 161.616 192.959 149.927 199.15V232.508L238.196 231.05V199.315H238.196Z" fill="#F4A120"/>
<path d="M238.173 199.302C224.54 203.587 210.035 205.902 194.987 205.902C179.445 205.902 164.482 203.429 150.46 198.87C121.805 213.814 101.802 243.074 99.951 277.167V277.36H148.813C169.237 277.36 189.431 273.093 208.121 264.857C226.784 256.633 246.142 246.443 255.713 234.66C259.191 230.379 262.431 225.888 265.413 221.205C265.414 221.204 265.415 221.203 265.415 221.201C257.808 212.313 248.573 204.86 238.173 199.302V199.302Z" fill="#F4A120"/>
<path d="M193.905 204.279C152.464 204.279 118.571 236.569 115.997 277.36L247.793 243.632C250.555 240.756 253.199 237.764 255.718 234.664C241.441 216.184 219.065 204.279 193.905 204.279V204.279Z" fill="#172312"/>
<path d="M193.905 215.996C158.937 215.996 130.288 243.045 127.737 277.36L229.645 259.614C236.131 254.803 242.203 249.455 247.794 243.633C235.748 226.896 216.101 215.996 193.905 215.996V215.996Z" fill="#E6DCDC"/>
<path d="M200.822 206.584C199.688 203.541 199.088 200.291 199.088 196.976V186.707C197.372 186.614 195.644 188.256 193.905 188.256C192.165 188.256 190.438 186.614 188.722 186.707V196.976C188.722 200.292 188.122 203.541 186.988 206.584H200.822Z" fill="#262F61"/>
<path d="M216.642 259.613V237.277C216.642 229.633 213.463 222.333 207.866 217.126C204.486 213.984 201.996 210.074 200.547 205.79C198.702 205.86 196.85 205.902 194.987 205.902C192.407 205.902 189.843 205.831 187.296 205.697C185.852 210.018 183.348 213.961 179.945 217.126C174.347 222.333 171.168 229.633 171.168 237.277V259.613H148.832C141.187 259.613 133.887 262.793 128.681 268.39C123.475 273.988 116.174 277.167 108.53 277.167H101.36C90.8642 277.136 91.0646 277.232 89.0501 277.083C116.358 288.355 146.533 290.901 175.333 284.457L204.421 274.592C208.564 272.673 212.641 270.547 216.638 268.211C216.639 268.21 216.641 268.209 216.642 268.209V268.205C221.299 265.474 225.678 262.555 229.644 259.613H216.642V259.613Z" fill="#262F61"/>
<path d="M193.905 259.06C189.912 269.85 181.404 278.358 170.614 282.351C172.246 282.955 173.817 283.673 175.337 284.476C185.464 282.217 195.205 278.887 204.428 274.607C199.773 270.394 196.134 265.084 193.905 259.06Z" fill="#A09088"/>
<path d="M99.67 142.803C108.775 162.9 124.876 179.001 144.973 188.106C124.876 197.211 108.775 213.312 99.67 233.409C90.5651 213.312 74.4642 197.211 54.3671 188.106C74.4642 179.001 90.5651 162.9 99.67 142.803V142.803Z" fill="#F4A120"/>
<path d="M89.5283 159.908C80.4212 172.025 68.3649 181.764 54.3671 188.106C74.4642 197.211 90.5651 213.312 99.6699 233.409C107.298 216.572 119.838 202.543 135.523 193.08C118.04 185.137 102.432 173.797 89.5283 159.908V159.908Z" fill="#F4A120"/>
<path d="M99.67 164.565C104.401 175.009 112.768 183.375 123.211 188.106C112.768 192.837 104.401 201.204 99.67 211.647C94.9389 201.204 86.5724 192.837 76.1293 188.106C86.5724 183.375 94.9389 175.008 99.67 164.565Z" fill="#262F61"/>
<path d="M243.121 188.396C246.565 189.957 249.892 191.723 253.086 193.68C253.183 193.739 253.276 193.802 253.372 193.862H254.63C269.014 193.862 281.626 184.258 285.453 170.394C286.415 165.257 287.832 155.841 287.858 144.306C278.661 163.837 262.811 179.476 243.121 188.396V188.396Z" fill="#F4A120"/>
<path d="M253.085 193.681C260.165 198.018 266.594 203.291 272.208 209.334C272.21 209.33 272.212 209.327 272.213 209.324C274.427 204.982 276.254 200.845 277.762 197.034L279.255 178.656C271.129 184.534 262.363 189.581 253.085 193.681Z" fill="#F4A120"/>
<path d="M285.453 170.394C280.544 178.251 273.406 184.536 264.883 188.397C269.662 190.562 273.999 193.496 277.758 197.034C280.61 189.836 282.909 182.347 284.585 174.611C284.618 174.409 284.981 172.914 285.453 170.394Z" fill="#262F61"/>
<path d="M117.714 2.44638L90.9483 10.0786C86.4487 11.8419 82.3244 13.7158 78.598 15.592C87.4285 23.7638 94.6244 33.669 99.6693 44.8046C108.591 25.1145 124.23 9.2647 143.76 0.0678711C134.456 0.0785953 125.754 0.970395 117.714 2.44638V2.44638Z" fill="#F4A120"/>
<path d="M90.9489 10.0792C94.5245 13.8592 97.4878 18.2262 99.6699 23.0424C103.538 14.5049 109.838 7.35749 117.714 2.44751C107.733 4.28078 98.773 7.01262 90.9489 10.0792V10.0792Z" fill="#262F61"/>
</g>
<path d="M54.7617 317.293H56.9414C57.1055 317.551 57.2227 317.738 57.293 317.855C57.9492 318.98 58.4531 319.719 58.8047 320.07C59.1094 320.164 60.7148 320.211 63.6211 320.211C65.4258 320.211 67.0312 320.199 68.4375 320.176L69.1406 320.07L73.3945 320.035L81.3398 320.105H92.2031L94.2773 319.789C94.582 319.578 94.9102 319.016 95.2617 318.102C95.3555 317.891 95.4844 317.598 95.6484 317.223L97.1953 317.188C97.4297 317.188 97.7812 317.199 98.25 317.223C98.2734 318.84 98.2852 321.277 98.2852 324.535L98.3203 327.664L98.2852 329.457C98.2852 330.066 98.2383 330.594 98.1445 331.039C97.1836 331.344 96.3398 331.531 95.6133 331.602C95.0039 330.688 94.3359 329.363 93.6094 327.629C92.9062 325.895 92.4609 324.934 92.2734 324.746C91.9922 324.441 91.6641 324.242 91.2891 324.148C90.7266 324.031 88.2422 323.973 83.8359 323.973C83.1797 323.973 82.3594 324.02 81.375 324.113C81.2344 325.027 81.1641 325.777 81.1641 326.363L81.1992 331.074V341.41L81.3398 352.555L81.3047 357.125C81.3047 358.742 81.4453 359.961 81.7266 360.781C82.1016 360.945 82.793 361.098 83.8008 361.238C83.9883 361.262 84.8555 361.449 86.4023 361.801C87.1055 361.965 87.7266 362.152 88.2656 362.363C88.3828 363.207 88.4414 363.723 88.4414 363.91C88.4414 364.121 88.4062 364.426 88.3359 364.824C87.8203 364.848 87.3984 364.859 87.0703 364.859C84.6562 364.859 82.6055 364.777 80.918 364.613C79.2305 364.426 76.1719 364.332 71.7422 364.332C71.0391 364.332 68.9766 364.473 65.5547 364.754C64.2188 364.848 63.3516 364.895 62.9531 364.895C62.9297 364.543 62.9062 364.273 62.8828 364.086L62.8477 363.277V362.996C63.3633 362.316 64.3359 361.812 65.7656 361.484C68.2031 360.898 69.8906 360.371 70.8281 359.902C71.0625 359.457 71.2031 358.871 71.25 358.145C71.4141 355.332 71.4961 350.855 71.4961 344.715L71.3203 331.426C71.3203 327.77 71.25 325.555 71.1094 324.781C71.0625 324.57 70.9805 324.418 70.8633 324.324C70.7461 324.207 70.582 324.137 70.3711 324.113C69.6445 324.02 67.2773 323.973 63.2695 323.973C61.0664 323.973 59.5898 324.184 58.8398 324.605C57.832 325.191 56.3203 326.785 54.3047 329.387C53.7188 330.137 53.2852 330.512 53.0039 330.512C51.9258 329.949 51.2344 329.492 50.9297 329.141C51.6562 327.617 52.6641 324.57 53.9531 320C54.3281 318.664 54.5977 317.762 54.7617 317.293ZM101.941 319.262C103.277 319.332 104.438 319.438 105.422 319.578C107.273 319.836 109.418 319.965 111.855 319.965C112.699 319.965 114.867 319.895 118.359 319.754C123.586 319.543 128.309 319.438 132.527 319.438L138.891 319.367C140.32 319.367 142.43 319.543 145.219 319.895C145.641 320.363 145.852 320.996 145.852 321.793V329.035L145.922 330.477C145.922 330.617 145.91 330.828 145.887 331.109L144.445 331.18C144.258 331.18 143.859 331.156 143.25 331.109C143.039 330.641 142.758 329.949 142.406 329.035L141 326.539C140.461 325.484 139.711 324.406 138.75 323.305C138.164 323.141 137.414 323.047 136.5 323.023C136.266 323 135.551 322.941 134.355 322.848C132.176 322.66 129.832 322.566 127.324 322.566C124.465 322.566 121.91 322.613 119.66 322.707C119.59 323.293 119.555 325.602 119.555 329.633L119.625 335.539V339.969C120.211 340.039 120.715 340.074 121.137 340.074C125.332 340.074 128.32 339.992 130.102 339.828C131.883 339.664 132.984 339.441 133.406 339.16C133.828 338.855 134.203 338.34 134.531 337.613C134.742 337.098 135.152 335.375 135.762 332.445L136.219 332.41L138.258 332.445C138.352 334.531 138.398 336.113 138.398 337.191C138.398 339.652 138.375 341.234 138.328 341.938C138.305 342.641 138.293 343.191 138.293 343.59C138.293 344.223 138.328 345.242 138.398 346.648C138.469 348.031 138.504 349.062 138.504 349.742V350.516H136.008C135.914 350.141 135.738 349.367 135.48 348.195C135.012 346.016 134.59 344.656 134.215 344.117C133.934 343.695 133.465 343.379 132.809 343.168C132.34 343.004 130.605 342.922 127.605 342.922C124.066 342.922 121.406 343.016 119.625 343.203C119.602 343.812 119.59 344.211 119.59 344.398C119.59 347.188 119.637 349.508 119.73 351.359L119.66 358.953C119.66 359.844 119.977 360.453 120.609 360.781C121.57 361.273 124.512 361.52 129.434 361.52C132.691 361.52 135.457 361.273 137.73 360.781C139.301 360.43 140.684 359.645 141.879 358.426C143.473 356.855 144.797 354.652 145.852 351.816C146.578 351.746 147.176 351.711 147.645 351.711C147.902 351.711 148.289 351.723 148.805 351.746C148.734 352.332 148.676 352.824 148.629 353.223L148.418 354.277L147.117 360.922L146.484 364.93C144.961 365 143.754 365.035 142.863 365.035C141.551 365.035 138.047 364.918 132.352 364.684C128.344 364.52 123.516 364.438 117.867 364.438C115.055 364.438 111.598 364.555 107.496 364.789H106.02L101.766 364.93V362.504C102.211 362.387 103.102 362.258 104.438 362.117C106.875 361.836 108.562 361.461 109.5 360.992C109.758 360.312 109.887 359.457 109.887 358.426C109.887 358.027 109.875 357.348 109.852 356.387L109.887 355.297L109.781 342.043L109.816 338.07L109.641 332.445L109.676 328.473L109.359 324.113C109.359 323.996 109.336 323.762 109.289 323.41C109.055 323.152 108.703 322.988 108.234 322.918C107.977 322.871 107.625 322.801 107.18 322.707C105.844 322.426 104.555 322.262 103.312 322.215C102.867 322.191 102.352 322.145 101.766 322.074L101.941 319.262ZM155.309 317.293H157.488C157.652 317.551 157.77 317.738 157.84 317.855C158.496 318.98 159 319.719 159.352 320.07C159.656 320.164 161.262 320.211 164.168 320.211C165.973 320.211 167.578 320.199 168.984 320.176L169.688 320.07L173.941 320.035L181.887 320.105H192.75L194.824 319.789C195.129 319.578 195.457 319.016 195.809 318.102C195.902 317.891 196.031 317.598 196.195 317.223L197.742 317.188C197.977 317.188 198.328 317.199 198.797 317.223C198.82 318.84 198.832 321.277 198.832 324.535L198.867 327.664L198.832 329.457C198.832 330.066 198.785 330.594 198.691 331.039C197.73 331.344 196.887 331.531 196.16 331.602C195.551 330.688 194.883 329.363 194.156 327.629C193.453 325.895 193.008 324.934 192.82 324.746C192.539 324.441 192.211 324.242 191.836 324.148C191.273 324.031 188.789 323.973 184.383 323.973C183.727 323.973 182.906 324.02 181.922 324.113C181.781 325.027 181.711 325.777 181.711 326.363L181.746 331.074V341.41L181.887 352.555L181.852 357.125C181.852 358.742 181.992 359.961 182.273 360.781C182.648 360.945 183.34 361.098 184.348 361.238C184.535 361.262 185.402 361.449 186.949 361.801C187.652 361.965 188.273 362.152 188.812 362.363C188.93 363.207 188.988 363.723 188.988 363.91C188.988 364.121 188.953 364.426 188.883 364.824C188.367 364.848 187.945 364.859 187.617 364.859C185.203 364.859 183.152 364.777 181.465 364.613C179.777 364.426 176.719 364.332 172.289 364.332C171.586 364.332 169.523 364.473 166.102 364.754C164.766 364.848 163.898 364.895 163.5 364.895C163.477 364.543 163.453 364.273 163.43 364.086L163.395 363.277V362.996C163.91 362.316 164.883 361.812 166.312 361.484C168.75 360.898 170.438 360.371 171.375 359.902C171.609 359.457 171.75 358.871 171.797 358.145C171.961 355.332 172.043 350.855 172.043 344.715L171.867 331.426C171.867 327.77 171.797 325.555 171.656 324.781C171.609 324.57 171.527 324.418 171.41 324.324C171.293 324.207 171.129 324.137 170.918 324.113C170.191 324.02 167.824 323.973 163.816 323.973C161.613 323.973 160.137 324.184 159.387 324.605C158.379 325.191 156.867 326.785 154.852 329.387C154.266 330.137 153.832 330.512 153.551 330.512C152.473 329.949 151.781 329.492 151.477 329.141C152.203 327.617 153.211 324.57 154.5 320C154.875 318.664 155.145 317.762 155.309 317.293ZM194.789 364.754L194.859 362.363C195.305 362.223 196.09 362.047 197.215 361.836C199.02 361.484 200.109 361.168 200.484 360.887C200.883 360.605 201.363 359.926 201.926 358.848L209.027 340.25L217.359 318.383C218.133 318.406 218.871 318.418 219.574 318.418H221.156L221.473 319.051L227.59 333.535C228.973 336.605 230.215 339.594 231.316 342.5C232.418 345.383 233.367 347.738 234.164 349.566C234.633 350.668 235.277 352.32 236.098 354.523C236.52 355.719 237.164 357.219 238.031 359.023C238.5 360.008 238.852 360.582 239.086 360.746C239.508 361.098 240.188 361.332 241.125 361.449C242.086 361.566 243.117 361.836 244.219 362.258C244.336 363.031 244.395 363.605 244.395 363.98C244.395 364.145 244.383 364.402 244.359 364.754C242.625 364.754 240.715 364.672 238.629 364.508C236.543 364.344 234.668 364.262 233.004 364.262C231.152 364.262 229.816 364.285 228.996 364.332L223.02 364.648L221.297 364.719C221.297 363.898 221.332 363.113 221.402 362.363L225.305 361.52C226.477 361.215 227.156 360.98 227.344 360.816C227.578 360.582 227.695 360.312 227.695 360.008C227.695 359.703 227.637 359.387 227.52 359.059L226.113 355.613L223.336 348.723L209.906 348.688C209.414 349.812 208.395 352.566 206.848 356.949C206.402 358.191 206.18 359.035 206.18 359.48C206.18 360.09 206.344 360.523 206.672 360.781C207.211 361.227 208.242 361.543 209.766 361.73C209.977 361.777 210.809 361.906 212.262 362.117C212.285 362.961 212.297 363.547 212.297 363.875C212.297 364.133 212.273 364.402 212.227 364.684C210.773 364.684 207.305 364.484 201.82 364.086L200.379 364.332C198.645 364.613 196.992 364.754 195.422 364.754H194.789ZM211.312 344.996C216.797 345.066 220.031 345.102 221.016 345.102L221.895 345.066C221.191 342.98 220.277 340.555 219.152 337.789C218.027 335 217.113 332.879 216.41 331.426L211.312 344.996Z" fill="white"/>
<defs>
<clipPath id="clip0">
<rect width="288" height="288" fill="white"/>
</clipPath>
</defs>
</svg>
