<svg width="40" height="40" viewBox="0 0 40 40" fill="none" xmlns="http://www.w3.org/2000/svg">
<g clip-path="url(#clip0)">
<path d="M39.2188 22.3545H38.0662V8.8398C38.0662 7.40371 36.8979 6.23535 35.4618 6.23535H4.53813C3.10203 6.23535 1.93367 7.40371 1.93367 8.8398V22.3544H0.78125C0.349766 22.3544 0 22.7043 0 23.1357V26.7732C0 27.2046 0.349766 27.5544 0.78125 27.5544H2.0493L2.98133 31.0035C3.35758 32.6299 4.78328 33.7643 6.45437 33.7643H10.4088C12.0799 33.7643 13.5056 32.63 13.8819 31.0035L14.2158 29.7678L14.5497 31.0034C14.9258 32.6299 16.3516 33.7643 18.0228 33.7643H21.9773C23.6484 33.7643 25.0741 32.6299 25.4503 31.0035L25.7842 29.7678L26.1181 31.0034C26.4944 32.6298 27.9202 33.7643 29.5912 33.7643H33.5455C35.2166 33.7643 36.6423 32.6299 37.0186 31.0034L37.9506 27.5544H39.2188C39.6502 27.5544 40 27.2046 40 26.7732V23.1357C40 22.7043 39.6502 22.3545 39.2188 22.3545ZM26.9559 22.3545C26.6848 21.6113 26.5429 20.8032 26.5429 19.9897C26.5429 18.257 27.1502 16.1168 28.1277 14.4042C29.1417 12.6277 30.3794 11.6088 31.5234 11.6088C32.6673 11.6088 33.9049 12.6277 34.919 14.4042C35.8966 16.1168 36.5037 18.257 36.5037 19.9897C36.5037 20.8033 36.3619 21.6115 36.0909 22.3545H26.9559ZM3.49617 8.8398C3.49617 8.26527 3.96359 7.79785 4.53813 7.79785H35.4618C36.0363 7.79785 36.5037 8.26527 36.5037 8.8398V14.0328C35.333 11.7942 33.5823 10.0462 31.5234 10.0462C28.9367 10.0462 26.8369 12.8047 25.7616 15.8292C24.6864 12.8046 22.5866 10.0462 20 10.0462C17.4134 10.0462 15.3135 12.8047 14.2383 15.8292C13.163 12.8046 11.0632 10.0462 8.47664 10.0462C6.41758 10.0462 4.66703 11.7942 3.49617 14.0328V8.8398V8.8398ZM13.0441 22.3545H3.90922C3.63812 21.6114 3.49625 20.8033 3.49625 19.9897C3.49625 18.257 4.10352 16.1168 5.08109 14.4042C6.09516 12.6277 7.33281 11.6088 8.47672 11.6088C9.62062 11.6088 10.8583 12.6277 11.8723 14.4042C12.8499 16.1168 13.4572 18.257 13.4572 19.9897C13.457 20.8032 13.3152 21.6114 13.0441 22.3545V22.3545ZM12.3696 30.6105C12.3668 30.6208 12.3642 30.6313 12.3619 30.6417C12.1538 31.5603 11.3508 32.2018 10.4089 32.2018H6.45445C5.51258 32.2018 4.70953 31.5603 4.50148 30.6417C4.49914 30.6312 4.49656 30.6207 4.49375 30.6105L3.66789 27.5544H13.1955L12.3696 30.6105ZM23.938 30.6105C23.9352 30.6209 23.9326 30.6313 23.9302 30.6417C23.7221 31.5603 22.9191 32.2018 21.9772 32.2018H18.0227C17.0809 32.2018 16.2778 31.5603 16.0698 30.6418C16.0674 30.6312 16.0648 30.6208 16.062 30.6105L15.2362 27.5544H24.7638L23.938 30.6105ZM35.5063 30.6105C35.5034 30.6208 35.5009 30.6313 35.4984 30.6417C35.2904 31.5603 34.4873 32.2018 33.5455 32.2018H29.5911C28.6492 32.2018 27.8462 31.5603 27.6381 30.6417C27.6358 30.6312 27.6332 30.6207 27.6303 30.6105L26.8045 27.5544H36.332L35.5063 30.6105ZM38.4375 25.9919H1.5625V23.9169H16.4683C16.8998 23.9169 17.2495 23.5671 17.2495 23.1357C17.2495 22.7043 16.8998 22.3544 16.4683 22.3544H15.4326C15.1615 21.6113 15.0196 20.8032 15.0196 19.9896C15.0196 18.2569 15.6269 16.1167 16.6045 14.4041C17.6185 12.6276 18.8562 11.6087 20.0001 11.6087C21.144 11.6087 22.3816 12.6276 23.3957 14.4041C24.3733 16.1167 24.9805 18.2569 24.9805 19.9896C24.9805 20.8032 24.8386 21.6114 24.5675 22.3544H23.5318C23.1003 22.3544 22.7505 22.7043 22.7505 23.1357C22.7505 23.5671 23.1003 23.9169 23.5318 23.9169H38.4375V25.9919Z" fill="white"/>
<path d="M20.7359 22.8366C20.6063 22.5257 20.2809 22.3269 19.9448 22.3573C19.6118 22.3876 19.3305 22.6336 19.2539 22.9586C19.1818 23.2648 19.3073 23.5944 19.5653 23.7748C19.8277 23.9583 20.1809 23.9618 20.4477 23.7851C20.755 23.5815 20.8752 23.1765 20.7359 22.8366Z" fill="white"/>
</g>
<defs>
<clipPath id="clip0">
<rect width="40" height="40" fill="white"/>
</clipPath>
</defs>
</svg>
