<svg width="76" height="76" viewBox="0 0 76 76" fill="none" xmlns="http://www.w3.org/2000/svg">
<g clip-path="url(#clip0)">
<path d="M74.5156 42.4735H72.3259V16.7956C72.3259 14.0671 70.106 11.8472 67.3774 11.8472H8.62244C5.89386 11.8472 3.67398 14.0671 3.67398 16.7956V42.4734H1.48438C0.664555 42.4734 0 43.1381 0 43.9578V50.869C0 51.6887 0.664555 52.3534 1.48438 52.3534H3.89366L5.66452 58.9066C6.3794 61.9968 9.08823 64.1522 12.2633 64.1522H19.7768C22.9519 64.1522 25.6607 61.9969 26.3756 58.9066L27.01 56.5589L27.6444 58.9065C28.359 61.9968 31.068 64.1522 34.2433 64.1522H41.7568C44.9319 64.1522 47.6407 61.9968 48.3556 58.9066L48.99 56.5588L49.6244 58.9065C50.3393 61.9966 53.0483 64.1522 56.2232 64.1522H63.7365C66.9116 64.1522 69.6205 61.9968 70.3353 58.9065L72.1062 52.3534H74.5156C75.3353 52.3534 76 51.6887 76 50.869V43.9578C76 43.1381 75.3353 42.4735 74.5156 42.4735ZM51.2161 42.4735C50.7011 41.0614 50.4315 39.526 50.4315 37.9805C50.4315 34.6883 51.5853 30.6218 53.4427 27.3679C55.3693 23.9926 57.7208 22.0567 59.8944 22.0567C62.0678 22.0567 64.4194 23.9926 66.3461 27.3679C68.2035 30.6218 69.3571 34.6883 69.3571 37.9805C69.3571 39.5263 69.0876 41.0619 68.5726 42.4735H51.2161ZM6.64273 16.7956C6.64273 15.704 7.53083 14.8159 8.62244 14.8159H67.3774C68.469 14.8159 69.3571 15.704 69.3571 16.7956V26.6624C67.1326 22.4089 63.8065 19.0878 59.8944 19.0878C54.9798 19.0878 50.9901 24.329 48.9471 30.0754C46.9042 24.3288 42.9145 19.0878 38 19.0878C33.0854 19.0878 29.0957 24.329 27.0527 30.0754C25.0098 24.3288 21.0201 19.0878 16.1056 19.0878C12.1934 19.0878 8.86736 22.4089 6.64273 26.6624V16.7956V16.7956ZM24.7837 42.4735H7.42752C6.91244 41.0616 6.64287 39.5263 6.64287 37.9805C6.64287 34.6883 7.79668 30.6218 9.65408 27.3679C11.5808 23.9926 13.9323 22.0567 16.1058 22.0567C18.2792 22.0567 20.6307 23.9926 22.5575 27.3679C24.4149 30.6218 25.5687 34.6883 25.5687 37.9805C25.5684 39.5262 25.2989 41.0616 24.7837 42.4735V42.4735ZM23.5023 58.16C23.4969 58.1796 23.492 58.1994 23.4876 58.2192C23.0923 59.9645 21.5665 61.1835 19.7769 61.1835H12.2635C10.4739 61.1835 8.94811 59.9645 8.55282 58.2192C8.54837 58.1993 8.54347 58.1794 8.53813 58.16L6.96899 52.3534H25.0714L23.5023 58.16ZM45.4821 58.16C45.4768 58.1797 45.4719 58.1994 45.4673 58.2192C45.072 59.9645 43.5462 61.1835 41.7567 61.1835H34.2432C32.4536 61.1835 30.9278 59.9645 30.5326 58.2193C30.5281 58.1993 30.5232 58.1796 30.5179 58.16L28.9487 52.3534H47.0511L45.4821 58.16ZM67.4619 58.16C67.4565 58.1796 67.4516 58.1994 67.447 58.2192C67.0517 59.9645 65.526 61.1835 63.7364 61.1835H56.2231C54.4335 61.1835 52.9077 59.9645 52.5124 58.2192C52.508 58.1993 52.5031 58.1794 52.4976 58.16L50.9286 52.3534H69.0309L67.4619 58.16ZM73.0312 49.3846H2.96875V45.4421H31.2897C32.1096 45.4421 32.7741 44.7774 32.7741 43.9578C32.7741 43.1381 32.1096 42.4734 31.2897 42.4734H29.3219C28.8068 41.0614 28.5373 39.526 28.5373 37.9803C28.5373 34.6881 29.6911 30.6217 31.5485 27.3678C33.4752 23.9925 35.8267 22.0565 38.0001 22.0565C40.1736 22.0565 42.5251 23.9925 44.4518 27.3678C46.3092 30.6217 47.4629 34.6881 47.4629 37.9803C47.4629 39.5262 47.1933 41.0616 46.6782 42.4734H44.7104C43.8906 42.4734 43.226 43.1381 43.226 43.9578C43.226 44.7774 43.8906 45.4421 44.7104 45.4421H73.0312V49.3846Z" fill="white"/>
<path d="M39.3983 43.3896C39.152 42.7989 38.5338 42.4211 37.895 42.479C37.2624 42.5364 36.7279 43.0039 36.5824 43.6214C36.4454 44.2032 36.6838 44.8295 37.1741 45.1722C37.6725 45.5208 38.3438 45.5274 38.8505 45.1918C39.4345 44.8049 39.6628 44.0354 39.3983 43.3896Z" fill="white"/>
</g>
<defs>
<clipPath id="clip0">
<rect width="76" height="76" fill="white"/>
</clipPath>
</defs>
</svg>
