<svg width="40" height="40" viewBox="0 0 40 40" fill="none" xmlns="http://www.w3.org/2000/svg">
<path d="M15.6321 10.3125C15.2009 10.3125 14.8509 10.6633 14.8509 11.0938C14.8509 11.5242 15.2009 11.875 15.6321 11.875C16.0626 11.875 16.4134 11.5242 16.4134 11.0938C16.4134 10.6633 16.0626 10.3125 15.6321 10.3125Z" fill="white"/>
<path d="M36.4352 13.8129C36.4355 13.8127 31.1437 5.08039 30.2999 3.68813V0.78125C30.2999 0.349844 29.9501 0 29.5187 0H10.4813C10.0499 0 9.70007 0.349844 9.70007 0.78125V3.68805C8.85601 5.08094 3.56031 13.8198 3.56046 13.8199C3.49085 13.9368 3.45007 14.0728 3.45007 14.2188V39.2188C3.45007 39.6502 3.79992 40 4.23132 40H35.7687C36.2001 40 36.5499 39.6502 36.5499 39.2188V14.2188C36.5499 14.0699 36.5075 13.9312 36.4352 13.8129ZM29.5187 5.41359L34.3816 13.4375H24.6556L29.5187 5.41359ZM11.2626 1.5625H28.7374V3.125H11.2626V1.5625ZM5.01257 15H13.8234L5.01257 30.1376V15ZM22.4874 38.4375H13.9879L22.4874 23.8395V38.4375ZM22.4874 20.6484L22.4537 20.7921L12.1799 38.4375H5.01257V33.2436L15.6313 15H22.4874V20.6484ZM22.8287 13.4375H5.61835L6.56531 11.875H12.5071C12.9376 11.875 13.2884 11.5242 13.2884 11.0938C13.2884 10.6633 12.9376 10.3125 12.5071 10.3125H7.51226L10.9214 4.6875H28.1317L24.7226 10.3125H18.7572C18.3259 10.3125 17.9759 10.6633 17.9759 11.0938C17.9759 11.5242 18.3259 11.875 18.7572 11.875H23.7757L22.8287 13.4375ZM24.0499 15H28.7374V35.6109L24.0499 37.9547V15ZM26.578 38.4375L29.5187 36.9672L32.4593 38.4375H26.578ZM34.9874 37.9547L30.2999 35.6109V15H34.9874V37.9547Z" fill="white"/>
<path d="M20.8982 19.9385C20.7865 19.5217 20.358 19.2743 19.9414 19.386L17.8501 19.9464L17.2897 17.8552C17.178 17.4385 16.7496 17.1909 16.3329 17.3028C15.9161 17.4145 15.6688 17.8428 15.7805 18.2596L16.2456 19.995L15.6237 19.636C15.2498 19.4203 14.7721 19.5483 14.5565 19.9219C14.3407 20.2956 14.4688 20.7734 14.8424 20.9891L18.4509 23.0724C18.5739 23.1434 18.7082 23.1772 18.8407 23.1772C19.1107 23.1772 19.3734 23.0371 19.518 22.7864C19.7338 22.4128 19.6058 21.9349 19.2321 21.7192L18.6102 21.3603L20.3458 20.8953C20.7626 20.7835 21.0099 20.3552 20.8982 19.9385Z" fill="white"/>
<path d="M15.0204 28.9099L11.4119 26.8266C11.0382 26.6108 10.5605 26.739 10.3448 27.1125C10.129 27.4862 10.257 27.964 10.6307 28.1797L14.2391 30.263C14.3622 30.334 14.4965 30.3679 14.629 30.3679C14.899 30.3679 15.1616 30.2277 15.3063 29.9771C15.5221 29.6034 15.394 29.1257 15.0204 28.9099Z" fill="white"/>
<path d="M13.4579 31.6162L9.84166 29.5287C9.66994 29.4321 9.46197 29.3997 9.25674 29.4548C8.83994 29.5665 8.5926 29.9948 8.70431 30.4116L9.26478 32.5031C8.42525 32.7283 7.18455 33.0612 7.17775 33.063C6.98291 33.114 6.80767 33.2391 6.699 33.4273C6.48322 33.8009 6.61127 34.2787 6.98494 34.4944L10.5934 36.5777C10.7164 36.6487 10.8507 36.6826 10.9832 36.6826C11.2532 36.6826 11.5159 36.5424 11.6606 36.2918C11.8763 35.9181 11.7483 35.4403 11.3746 35.2246L9.39955 34.0844L10.4236 33.81C10.8404 33.6983 11.0878 33.2699 10.976 32.8532L10.7017 31.8291L12.6767 32.9694C12.7997 33.0405 12.934 33.0743 13.0665 33.0743C13.3365 33.0743 13.5991 32.9341 13.7438 32.6835C13.9596 32.3097 13.8316 31.8319 13.4579 31.6162Z" fill="white"/>
<path d="M17.6697 24.4255C17.2959 24.2097 16.8181 24.3377 16.6025 24.7114L15.9515 25.839L13.0196 24.1463C12.6458 23.9305 12.1682 24.0587 11.9524 24.4322C11.7366 24.8059 11.8647 25.2837 12.2384 25.4994L15.8468 27.5828C15.9698 27.6538 16.1041 27.6876 16.2366 27.6876C16.5066 27.6876 16.7693 27.5475 16.914 27.2969L17.9556 25.4926C18.1714 25.1189 18.0434 24.6412 17.6697 24.4255Z" fill="white"/>
</svg>
