<svg width="76" height="76" viewBox="0 0 76 76" fill="none" xmlns="http://www.w3.org/2000/svg">
<path d="M29.701 19.5938C28.8816 19.5938 28.2166 20.2602 28.2166 21.0781C28.2166 21.896 28.8816 22.5625 29.701 22.5625C30.5189 22.5625 31.1854 21.896 31.1854 21.0781C31.1854 20.2602 30.5189 19.5938 29.701 19.5938Z" fill="white"/>
<path d="M69.2269 26.2445C69.2274 26.2442 59.173 9.65274 57.5698 7.00744V1.48438C57.5698 0.664703 56.9051 0 56.0855 0H19.9145C19.0948 0 18.4301 0.664703 18.4301 1.48438V7.00729C16.8264 9.65378 6.76459 26.2577 6.76489 26.2579C6.63263 26.4799 6.55515 26.7383 6.55515 27.0156V74.5156C6.55515 75.3353 7.21985 76 8.03952 76H67.9605C68.7801 76 69.4448 75.3353 69.4448 74.5156V27.0156C69.4448 26.7329 69.3642 26.4694 69.2269 26.2445ZM56.0855 10.2858L65.3251 25.5312H46.8457L56.0855 10.2858ZM21.3989 2.96875H54.6011V5.9375H21.3989V2.96875ZM9.52389 28.5H26.2645L9.52389 57.2614V28.5ZM42.7261 73.0312H26.577L42.7261 45.295V73.0312ZM42.7261 39.232L42.662 39.505L23.1418 73.0312H9.52389V63.1628L29.6995 28.5H42.7261V39.232ZM43.3745 25.5312H10.6749L12.4741 22.5625H23.7635C24.5814 22.5625 25.2479 21.896 25.2479 21.0781C25.2479 20.2602 24.5814 19.5938 23.7635 19.5938H14.2733L20.7507 8.90625H53.4502L46.973 19.5938H35.6386C34.8193 19.5938 34.1543 20.2602 34.1543 21.0781C34.1543 21.896 34.8193 22.5625 35.6386 22.5625H45.1738L43.3745 25.5312ZM45.6948 28.5H54.6011V67.6608L45.6948 72.1139V28.5ZM50.4983 73.0312L56.0855 70.2377L61.6726 73.0312H50.4983ZM66.4761 72.1139L57.5698 67.6608V28.5H66.4761V72.1139Z" fill="white"/>
<path d="M39.7066 37.8831C39.4943 37.0914 38.6801 36.6213 37.8887 36.8335L33.9152 37.8983L32.8504 33.9249C32.6381 33.1331 31.8243 32.6627 31.0325 32.8753C30.2406 33.0876 29.7706 33.9014 29.9829 34.6932L30.8667 37.9906L29.685 37.3084C28.9747 36.8985 28.067 37.1418 27.6573 37.8517C27.2473 38.5616 27.4906 39.4695 28.2006 39.8793L35.0566 43.8375C35.2904 43.9725 35.5456 44.0367 35.7973 44.0367C36.3103 44.0367 36.8094 43.7705 37.0843 43.2943C37.4943 42.5843 37.251 41.6764 36.541 41.2666L35.3595 40.5845L38.657 39.701C39.4489 39.4888 39.9189 38.6749 39.7066 37.8831Z" fill="white"/>
<path d="M28.5387 54.9288L21.6827 50.9706C20.9726 50.5606 20.0649 50.8041 19.6551 51.5139C19.2451 52.2239 19.4884 53.1316 20.1983 53.5416L27.0544 57.4998C27.2882 57.6347 27.5433 57.699 27.7951 57.699C28.3081 57.699 28.8071 57.4327 29.082 56.9565C29.492 56.2465 29.2487 55.3388 28.5387 54.9288Z" fill="white"/>
<path d="M25.57 60.0706L18.6991 56.1045C18.3729 55.9209 17.9777 55.8593 17.5878 55.964C16.7959 56.1762 16.3259 56.9901 16.5382 57.7819L17.6031 61.7558C16.0079 62.1838 13.6506 62.8163 13.6377 62.8197C13.2675 62.9165 12.9346 63.1541 12.7281 63.5117C12.3181 64.2217 12.5614 65.1295 13.2714 65.5394L20.1274 69.4976C20.3612 69.6325 20.6163 69.6968 20.8681 69.6968C21.3811 69.6968 21.8801 69.4305 22.155 68.9543C22.565 68.2443 22.3217 67.3365 21.6118 66.9267L17.8591 64.7602L19.8048 64.2389C20.5967 64.0266 21.0667 63.2128 20.8544 62.421L20.3331 60.4753L24.0856 62.6419C24.3194 62.7768 24.5746 62.8411 24.8263 62.8411C25.3393 62.8411 25.8382 62.5748 26.1133 62.0986C26.5233 61.3883 26.28 60.4806 25.57 60.0706Z" fill="white"/>
<path d="M33.5724 46.4082C32.8623 45.9984 31.9544 46.2415 31.5448 46.9515L30.3078 49.094L24.7373 45.8778C24.027 45.4679 23.1196 45.7113 22.7096 46.4211C22.2996 47.1311 22.5429 48.0388 23.2529 48.4488L30.1089 52.4072C30.3427 52.5421 30.5979 52.6064 30.8496 52.6064C31.3626 52.6064 31.8617 52.3401 32.1366 51.8639L34.1157 48.4359C34.5257 47.7257 34.2824 46.818 33.5724 46.4082Z" fill="white"/>
</svg>
