<svg width="76" height="76" viewBox="0 0 76 76" fill="none" xmlns="http://www.w3.org/2000/svg">
<g clip-path="url(#clip0)">
<path d="M47.139 15.8955L47.1843 15.7689C47.2774 15.5133 47.3245 15.2436 47.3239 14.9716V12.9163L49.6264 7.6246C49.6782 7.60222 49.7348 7.59103 49.7913 7.59221H50.8036C52.0008 7.61988 53.0744 6.86022 53.4465 5.7219L54.1832 3.19086C54.3917 2.46594 54.2439 1.68448 53.7846 1.08558C53.2457 0.391873 52.413 -0.00974832 51.535 -0.000326115H24.3826C23.5045 -0.00974832 22.6718 0.391873 22.133 1.08558C21.6754 1.68507 21.5294 2.46653 21.7396 3.19086L22.4757 5.7219C22.8479 6.86022 23.922 7.61988 25.1193 7.59221H26.1316C26.1881 7.59103 26.244 7.60222 26.2959 7.6246L28.599 12.9163V14.9769C28.5978 15.2489 28.6449 15.5192 28.738 15.7748L28.7839 15.8955C30.2438 19.7392 27.1662 26.9419 24.3284 32.3067C16.9349 46.2739 15.667 60.5397 16.8271 68.5115C17.8029 75.2177 19.8946 75.9998 27.6892 75.9998C28.7568 75.9998 29.934 75.9845 31.2319 75.968C32.968 75.9468 34.9537 75.9215 37.2221 75.9215H38.6949C40.9639 75.9215 42.949 75.9468 44.6904 75.968C55.4293 76.1034 57.9769 76.1352 59.0916 68.5115C60.2506 60.5397 58.9827 46.2739 51.5945 32.3067C48.756 26.9419 45.6773 19.7392 47.139 15.8955V15.8955ZM31.1259 14.9769V13.9186H44.7816L44.7728 14.9969C44.393 15.9815 43.4996 18.3789 45.2663 24.0528C45.2457 24.0528 45.2292 24.0416 45.2092 24.0416H30.6577C32.415 18.3742 31.5128 15.975 31.1259 14.9769ZM28.513 6.38499C28.4712 6.28841 28.417 6.19772 28.3523 6.11528C27.8117 5.441 26.9907 5.05233 26.1263 5.06117H25.114C25.0409 5.0594 24.9691 5.0435 24.9025 5.01347L24.1535 2.60904C24.2159 2.5525 24.2989 2.52424 24.3826 2.53071H51.535C51.6375 2.53071 51.7028 2.56075 51.7323 2.53837L51.0233 4.98638C50.9608 5.03997 50.8802 5.06705 50.7983 5.06117H49.786C48.9221 5.05233 48.1018 5.441 47.5618 6.11528C47.497 6.19772 47.4428 6.28841 47.401 6.38499L45.228 11.3882H30.6895L28.513 6.38499ZM56.5871 68.147C55.8115 73.474 55.5925 73.5689 44.7233 73.4375C42.972 73.4157 40.9751 73.3904 38.6949 73.3904H37.2221C34.9449 73.3904 32.9456 73.4157 31.1954 73.4375C20.3287 73.57 20.1061 73.474 19.3317 68.147C18.2269 60.5544 19.4577 46.9193 26.5603 33.4915C27.7616 31.2496 28.8304 28.9388 29.7615 26.5721H45.2092C45.5142 26.5685 45.8069 26.4537 46.033 26.2499C46.9894 28.7303 48.0994 31.1489 49.3573 33.4915C56.4611 46.9193 57.6907 60.5521 56.5859 68.147H56.5871Z" fill="white"/>
<path d="M27.2033 56.9413C26.4336 56.9437 25.7388 56.4814 25.4443 55.77C25.1493 55.0592 25.313 54.2412 25.8583 53.6983C26.6133 52.9857 27.7928 52.9857 28.5483 53.6983C28.8116 53.9621 28.9906 54.2978 29.063 54.6635C29.2032 55.3484 29.8716 55.79 30.5565 55.6505C31.2413 55.5109 31.683 54.8425 31.5434 54.1576C31.3715 53.3055 30.9516 52.5235 30.3374 51.9087C28.5801 50.2427 25.8265 50.2427 24.0687 51.9087C22.8002 53.1754 22.4198 55.0822 23.1064 56.7387C23.7931 58.3953 25.4102 59.4741 27.2033 59.4717C28.2021 59.4723 29.0295 60.2461 29.0966 61.2431C29.1631 62.2395 28.4465 63.1176 27.4565 63.2506C26.4666 63.3843 25.5427 62.7283 25.343 61.7496C25.2035 61.0641 24.5345 60.6218 23.8496 60.762C23.1641 60.9016 22.7219 61.5705 22.862 62.2554C23.3279 64.5391 25.4838 66.0702 27.7928 65.7587C30.1024 65.4472 31.7754 63.3996 31.62 61.0741C31.4645 58.7492 29.5336 56.9425 27.2033 56.9413V56.9413Z" fill="white"/>
<path d="M38.5912 50.6143C35.3989 50.6143 32.8973 53.9497 32.8973 58.2062C32.8973 62.4633 35.3989 65.7987 38.5912 65.7987C41.7836 65.7987 44.2858 62.4633 44.2858 58.2062C44.2858 53.9497 41.7836 50.6143 38.5912 50.6143V50.6143ZM38.5912 63.2677C36.877 63.2677 35.4277 60.9498 35.4277 58.2062C35.4277 55.4632 36.877 53.1453 38.5912 53.1453C40.3061 53.1453 41.7547 55.4632 41.7547 58.2062C41.7547 60.9498 40.3061 63.2677 38.5912 63.2677Z" fill="white"/>
<path d="M46.6355 51.2279C46.2692 50.6431 45.5024 50.4594 44.9106 50.8145C44.3194 51.1702 44.1221 51.9339 44.4666 52.5311L48.0818 58.5572V64.5332C48.0818 65.2322 48.6483 65.7987 49.3467 65.7987C50.0457 65.7987 50.6122 65.2322 50.6122 64.5332V58.5572L54.2274 52.5311C54.47 52.1436 54.4848 51.6548 54.2651 51.2532C54.046 50.8522 53.6267 50.6001 53.1692 50.5948C52.7116 50.5895 52.287 50.8315 52.0585 51.2279L49.3467 55.7464L46.6355 51.2279Z" fill="white"/>
<path d="M26.3253 46.7941C27.0108 46.9296 27.6762 46.4838 27.8116 45.7983C28.3004 43.2791 29.0925 40.8287 30.1707 38.4997C30.4681 37.8672 30.1966 37.1134 29.5642 36.8154C28.9317 36.518 28.1779 36.7895 27.88 37.422C26.7151 39.9377 25.8583 42.5854 25.3295 45.3072C25.1935 45.9933 25.6392 46.6587 26.3253 46.7941Z" fill="white"/>
<path d="M33.4632 29.2362C33.1629 29.0866 32.8148 29.0619 32.4962 29.1679C32.1777 29.2745 31.9144 29.503 31.7648 29.8033L30.4993 32.3343C30.1872 32.9597 30.441 33.72 31.0664 34.0321C31.6918 34.3448 32.4521 34.091 32.7642 33.4656L34.0297 30.9345C34.1799 30.6342 34.2046 30.2868 34.098 29.9682C33.992 29.6496 33.7635 29.3864 33.4632 29.2362Z" fill="white"/>
</g>
<defs>
<clipPath id="clip0">
<rect width="76" height="76" fill="white"/>
</clipPath>
</defs>
</svg>
