<svg width="76" height="76" viewBox="0 0 76 76" fill="none" xmlns="http://www.w3.org/2000/svg">
<path d="M17.4349 22.6899C15.3595 25.5984 14.2459 29.0832 14.25 32.6562C14.25 34.3884 14.9381 36.0497 16.163 37.2745C17.3878 38.4994 19.0491 39.1875 20.7812 39.1875C22.5134 39.1875 24.1747 38.4994 25.3995 37.2745C26.6244 36.0497 27.3125 34.3884 27.3125 32.6562C27.3138 31.5543 27.752 30.4979 28.5312 29.7187C29.3104 28.9395 30.3668 28.5013 31.4687 28.5C33.0974 28.4979 34.6667 27.8881 35.8695 26.7899C37.0722 25.6917 37.8219 24.1843 37.9718 22.5625H40.091C39.4938 24.4852 39.1892 26.4867 39.1875 28.5C39.1875 31.3345 40.3135 34.0529 42.3178 36.0572C44.3221 38.0615 47.0405 39.1875 49.875 39.1875C52.7095 39.1875 55.4279 38.0615 57.4322 36.0572C59.4365 34.0529 60.5625 31.3345 60.5625 28.5C60.555 25.3673 59.822 22.2789 58.4211 19.477C57.0201 16.675 54.9892 14.2356 52.4875 12.35L50.5875 10.925C50.3819 10.7708 50.1319 10.6875 49.875 10.6875C49.618 10.6875 49.368 10.7708 49.1625 10.925L47.2625 12.35C44.5471 14.394 42.3907 17.0896 40.9926 20.1875H37.7511C37.3619 18.8209 36.5383 17.6181 35.4048 16.7611C34.2714 15.9041 32.8897 15.4395 31.4687 15.4375C27.0503 15.4343 22.8009 17.1357 19.6056 20.1875H19C16.2836 20.1897 13.6496 21.1211 11.5355 22.8269L13.0294 24.6731C14.2994 23.6386 15.8184 22.9548 17.4349 22.6899V22.6899ZM48.6875 14.25L49.875 13.3594L51.0625 14.25C53.2699 15.9137 55.0619 18.0662 56.298 20.5385C57.5342 23.0108 58.1809 25.7359 58.1875 28.5C58.1875 30.7046 57.3117 32.8189 55.7528 34.3778C54.1939 35.9367 52.0796 36.8125 49.875 36.8125C47.6704 36.8125 45.5561 35.9367 43.9972 34.3778C42.4383 32.8189 41.5625 30.7046 41.5625 28.5C41.5691 25.7359 42.2158 23.0108 43.452 20.5385C44.6881 18.0662 46.4801 15.9137 48.6875 14.25V14.25ZM31.4687 17.8125C32.5711 17.8125 33.6282 18.2504 34.4077 19.0298C35.1871 19.8093 35.625 20.8664 35.625 21.9688C35.625 23.0711 35.1871 24.1282 34.4077 24.9077C33.6282 25.6871 32.5711 26.125 31.4687 26.125C29.7371 26.1269 28.077 26.8157 26.8526 28.0401C25.6282 29.2645 24.9394 30.9246 24.9375 32.6562C24.9375 33.7586 24.4996 34.8157 23.7202 35.5952C22.9407 36.3746 21.8836 36.8125 20.7812 36.8125C19.6789 36.8125 18.6218 36.3746 17.8423 35.5952C17.0629 34.8157 16.625 33.7586 16.625 32.6562C16.6294 28.7208 18.1948 24.9478 20.9775 22.165C23.7603 19.3823 27.5333 17.8169 31.4687 17.8125V17.8125Z" fill="white"/>
<path d="M51.0625 16.625H48.6875V34.4375H51.0625V16.625Z" fill="white"/>
<path d="M46.3125 22.5625H43.9375V30.875H46.3125V22.5625Z" fill="white"/>
<path d="M55.8125 22.5625H53.4375V30.875H55.8125V22.5625Z" fill="white"/>
<path d="M71.7001 58.9699C71.0919 58.3464 70.3651 57.851 69.5625 57.5127C68.7599 57.1744 67.8978 57.0001 67.0268 57.0001C66.1558 57.0001 65.2937 57.1744 64.4911 57.5127C63.6885 57.851 62.9617 58.3464 62.3535 58.9699C61.9666 59.3684 61.5036 59.6851 60.9919 59.9013C60.4803 60.1174 59.9304 60.2287 59.375 60.2283C59.2048 60.2279 59.0348 60.2172 58.8659 60.1961C65.326 52.6388 68.8755 43.0231 68.875 33.0809V32.0626C68.8739 29.883 68.2736 27.7456 67.1397 25.8841C66.0059 24.0227 64.3821 22.5087 62.4459 21.5078L61.3553 23.6174C63.2481 24.5941 64.7579 26.1784 65.6422 28.116C66.5266 30.0537 66.7343 32.2323 66.2319 34.3021C65.7296 36.3719 64.5463 38.2129 62.8722 39.5296C61.198 40.8463 59.1299 41.5623 57 41.5626H39.0371C39.1372 41.1747 39.1877 40.7757 39.1875 40.3751V35.6251C39.1875 35.4692 39.1568 35.3147 39.0971 35.1707C39.0374 35.0266 38.95 34.8957 38.8397 34.7854L35.2772 31.2229C35.1669 31.1126 35.036 31.0252 34.8919 30.9655C34.7479 30.9058 34.5934 30.8751 34.4375 30.8751C33.1782 30.8765 31.9708 31.3774 31.0803 32.2679C30.1898 33.1584 29.6889 34.3658 29.6875 35.6251V40.3751C29.6873 40.7757 29.7378 41.1747 29.8379 41.5626H19C16.4813 41.5598 14.0666 40.558 12.2856 38.777C10.5046 36.996 9.50283 34.5813 9.5 32.0626C9.49116 29.8881 10.2371 27.7779 11.6106 26.092L9.76437 24.5981C8.05857 26.7122 7.12723 29.3462 7.125 32.0626V33.0809C7.12493 44.149 11.5216 54.7638 19.3478 62.5903C19.5706 62.8128 19.8726 62.9377 20.1875 62.9376H42.75V60.5626H20.6836C15.1592 54.8961 11.4691 47.6975 10.0938 39.9041C11.2058 41.1715 12.5755 42.1869 14.1114 42.8824C15.6473 43.578 17.3139 43.9378 19 43.9376H31.3007C32.1665 44.7028 33.2821 45.1251 34.4375 45.1251C35.5929 45.1251 36.7085 44.7028 37.5743 43.9376H57C58.686 43.9378 60.3527 43.5782 61.8886 42.8826C63.4245 42.1871 64.7942 41.1717 65.9062 39.9044C64.6443 47.0614 61.4264 53.7294 56.6087 59.1704C56.5363 59.106 56.465 59.0398 56.3963 58.9699C55.7881 58.3464 55.0613 57.851 54.2588 57.5127C53.4562 57.1744 52.594 57.0001 51.723 57.0001C50.8521 57.0001 49.9899 57.1744 49.1873 57.5127C48.3848 57.851 47.658 58.3464 47.0498 58.9699C45.8186 60.236 45.1297 61.9324 45.1297 63.6985C45.1297 65.4646 45.8186 67.161 47.0498 68.4271C49.7614 71.2208 53.3423 73.0095 57.2046 73.4996C61.0668 73.9897 64.981 73.1521 68.3044 71.1242L67.0703 69.0951C61.1582 72.6903 53.6219 71.7315 48.7445 66.7633C47.9465 65.9427 47.5001 64.8431 47.5001 63.6985C47.5001 62.5539 47.9465 61.4544 48.7445 60.6337C49.1316 60.2354 49.5947 59.9189 50.1063 59.7027C50.6179 59.4865 51.1676 59.3751 51.723 59.3751C52.2785 59.3751 52.8282 59.4865 53.3398 59.7027C53.8514 59.9189 54.3145 60.2354 54.7016 60.6337C55.3098 61.2571 56.0366 61.7525 56.8392 62.0908C57.6417 62.4291 58.5039 62.6033 59.3749 62.6033C60.2458 62.6033 61.108 62.4291 61.9105 62.0908C62.7131 61.7525 63.4399 61.2571 64.0481 60.6337C64.4352 60.2354 64.8983 59.9189 65.4099 59.7027C65.9215 59.4865 66.4713 59.3751 67.0267 59.3751C67.5821 59.3751 68.1318 59.4865 68.6434 59.7027C69.155 59.9189 69.6181 60.2354 70.0052 60.6337C70.8032 61.4544 71.2496 62.5539 71.2496 63.6985C71.2496 64.8431 70.8032 65.9427 70.0052 66.7633C69.5923 67.1839 69.1555 67.5804 68.697 67.9508L70.1888 69.7988C70.7184 69.3709 71.223 68.9128 71.6999 68.4268C72.9311 67.1607 73.6199 65.4644 73.6199 63.6984C73.6199 61.9324 72.9312 60.236 71.7001 58.9699V58.9699ZM36.8125 40.3751C36.8125 41.005 36.5623 41.6091 36.1169 42.0545C35.6715 42.4999 35.0674 42.7501 34.4375 42.7501C33.8076 42.7501 33.2035 42.4999 32.7581 42.0545C32.3127 41.6091 32.0625 41.005 32.0625 40.3751V35.6251C32.0632 35.0733 32.2557 34.5389 32.607 34.1134C32.9583 33.688 33.4466 33.3978 33.9883 33.2927L36.8125 36.1169V40.3751Z" fill="white"/>
<path d="M11.875 61.75H7.125C6.96905 61.75 6.81463 61.7807 6.67055 61.8404C6.52648 61.9001 6.39556 61.9875 6.28529 62.0978L2.72279 65.6603C2.61252 65.7706 2.52505 65.9015 2.46538 66.0456C2.4057 66.1896 2.37499 66.3441 2.375 66.5C2.37641 67.7593 2.87731 68.9667 3.7678 69.8572C4.6583 70.7477 5.86566 71.2486 7.125 71.25H11.875C13.1348 71.25 14.343 70.7496 15.2338 69.8588C16.1246 68.968 16.625 67.7598 16.625 66.5C16.625 65.2402 16.1246 64.032 15.2338 63.1412C14.343 62.2504 13.1348 61.75 11.875 61.75ZM11.875 68.875H7.125C6.57321 68.8743 6.03883 68.6818 5.61334 68.3305C5.18785 67.9792 4.89771 67.4909 4.7926 66.9492L7.61677 64.125H11.875C12.5049 64.125 13.109 64.3752 13.5544 64.8206C13.9998 65.266 14.25 65.8701 14.25 66.5C14.25 67.1299 13.9998 67.734 13.5544 68.1794C13.109 68.6248 12.5049 68.875 11.875 68.875Z" fill="white"/>
<path d="M26.7188 65.3125H23.1562C22.0539 65.3125 20.9968 65.7504 20.2173 66.5298C19.4379 67.3093 19 68.3664 19 69.4688C19 70.5711 19.4379 71.6282 20.2173 72.4077C20.9968 73.1871 22.0539 73.625 23.1562 73.625H26.7188C27.8211 73.625 28.8782 73.1871 29.6577 72.4077C30.4371 71.6282 30.875 70.5711 30.875 69.4688C30.875 68.3664 30.4371 67.3093 29.6577 66.5298C28.8782 65.7504 27.8211 65.3125 26.7188 65.3125V65.3125ZM26.7188 71.25H23.1562C22.6838 71.25 22.2308 71.0623 21.8967 70.7283C21.5627 70.3942 21.375 69.9412 21.375 69.4688C21.375 68.9963 21.5627 68.5433 21.8967 68.2092C22.2308 67.8752 22.6838 67.6875 23.1562 67.6875H26.7188C27.1912 67.6875 27.6442 67.8752 27.9783 68.2092C28.3123 68.5433 28.5 68.9963 28.5 69.4688C28.5 69.9412 28.3123 70.3942 27.9783 70.7283C27.6442 71.0623 27.1912 71.25 26.7188 71.25Z" fill="white"/>
<path d="M35.8286 12.799C36.7194 13.6898 37.9276 14.1903 39.1874 14.1903C40.4472 14.1903 41.6554 13.6898 42.5462 12.799C43.437 11.9082 43.9374 10.7001 43.9374 9.44028C43.9374 8.18049 43.437 6.97231 42.5462 6.08151L40.5788 4.11426C40.0287 3.56113 39.3744 3.12259 38.6537 2.82405C37.9331 2.52551 37.1603 2.37288 36.3802 2.37502H33.3094C32.9944 2.37502 32.6924 2.50013 32.4697 2.72283C32.247 2.94553 32.1219 3.24758 32.1219 3.56252V6.63325C32.1197 7.41329 32.2723 8.186 32.5708 8.90666C32.8694 9.62732 33.3079 10.2816 33.861 10.8317L35.8286 12.799ZM34.4969 4.75002H36.3799C36.848 4.74872 37.3116 4.84028 37.7441 5.01941C38.1765 5.19853 38.5691 5.46165 38.8991 5.79354L40.8665 7.76078C41.087 7.98132 41.262 8.24314 41.3813 8.5313C41.5007 8.81946 41.5621 9.1283 41.5621 9.4402C41.5621 9.7521 41.5007 10.0609 41.3813 10.3491C41.262 10.6373 41.087 10.8991 40.8665 11.1196C40.4211 11.565 39.817 11.8152 39.1871 11.8152C38.5572 11.8152 37.9532 11.565 37.5078 11.1196L35.5405 9.15208C35.2086 8.82212 34.9455 8.42959 34.7664 7.99722C34.5872 7.56486 34.4956 7.10125 34.4969 6.63325V4.75002Z" fill="white"/>
<path d="M23.1562 15.5798C23.702 15.5807 24.2426 15.4739 24.747 15.2653C25.2514 15.0568 25.7096 14.7506 26.0953 14.3645L28.6143 11.8455C29.0003 11.4596 29.3064 11.0014 29.5153 10.4971C29.7242 9.99279 29.8317 9.4523 29.8317 8.90646C29.8317 8.36063 29.7242 7.82014 29.5153 7.31585C29.3064 6.81157 29.0003 6.35336 28.6143 5.9674C28.2283 5.58144 27.7701 5.27527 27.2658 5.06639C26.7616 4.85751 26.2211 4.75 25.6752 4.75C25.1294 4.75 24.5889 4.85751 24.0846 5.06639C23.5803 5.27527 23.1221 5.58144 22.7362 5.9674L20.2172 8.48653C19.6356 9.06754 19.2395 9.80803 19.079 10.6143C18.9185 11.4205 19.0008 12.2562 19.3155 13.0157C19.6301 13.7751 20.163 14.4241 20.8467 14.8806C21.5304 15.337 22.3342 15.5803 23.1562 15.5798ZM21.8968 10.166L24.4157 7.64697C24.581 7.48082 24.7774 7.34891 24.9937 7.25879C25.21 7.16867 25.4419 7.12211 25.6763 7.12179C25.9106 7.12146 26.1427 7.16737 26.3592 7.25689C26.5758 7.34641 26.7725 7.47778 26.9382 7.64347C27.1039 7.80915 27.2353 8.00591 27.3248 8.22245C27.4144 8.439 27.4603 8.67108 27.46 8.90541C27.4597 9.13973 27.4131 9.37169 27.323 9.588C27.2329 9.8043 27.101 10.0007 26.9349 10.166L24.4157 12.6849C24.0808 13.0145 23.6291 13.1983 23.1592 13.1964C22.6893 13.1945 22.2392 13.007 21.907 12.6747C21.5747 12.3425 21.3872 11.8923 21.3853 11.4224C21.3834 10.9525 21.5672 10.5009 21.8968 10.166V10.166Z" fill="white"/>
</svg>
