<svg width="40" height="40" viewBox="0 0 40 40" fill="none" xmlns="http://www.w3.org/2000/svg">
<path d="M9.17625 11.942C8.08396 13.4728 7.49785 15.307 7.5 17.1875C7.5 18.0992 7.86216 18.9735 8.50682 19.6182C9.15148 20.2628 10.0258 20.625 10.9375 20.625C11.8492 20.625 12.7235 20.2628 13.3682 19.6182C14.0128 18.9735 14.375 18.0992 14.375 17.1875C14.3757 16.6075 14.6063 16.0515 15.0164 15.6414C15.4265 15.2313 15.9825 15.0007 16.5625 15C17.4197 14.9989 18.2456 14.6779 18.8787 14.1C19.5117 13.522 19.9063 12.7286 19.9852 11.875H21.1005C20.7862 12.8869 20.6259 13.9404 20.625 15C20.625 16.4918 21.2176 17.9226 22.2725 18.9775C23.3274 20.0324 24.7582 20.625 26.25 20.625C27.7418 20.625 29.1726 20.0324 30.2275 18.9775C31.2824 17.9226 31.875 16.4918 31.875 15C31.8711 13.3512 31.4853 11.7258 30.7479 10.251C30.0106 8.77631 28.9417 7.49242 27.625 6.5L26.625 5.75C26.5168 5.66886 26.3852 5.625 26.25 5.625C26.1148 5.625 25.9832 5.66886 25.875 5.75L24.875 6.5C23.4458 7.57581 22.3109 8.99452 21.5751 10.625H19.869C19.6642 9.90572 19.2307 9.27269 18.6341 8.82164C18.0376 8.37059 17.3104 8.12605 16.5625 8.125C14.237 8.1233 12.0005 9.0188 10.3187 10.625H10C8.57029 10.6262 7.18399 11.1163 6.07133 12.0141L6.85758 12.9859C7.52602 12.4414 8.32545 12.0815 9.17625 11.942V11.942ZM25.625 7.5L26.25 7.03125L26.875 7.5C28.0368 8.37565 28.9799 9.5085 29.6305 10.8097C30.2812 12.111 30.6215 13.5452 30.625 15C30.625 16.1603 30.1641 17.2731 29.3436 18.0936C28.5231 18.9141 27.4103 19.375 26.25 19.375C25.0897 19.375 23.9769 18.9141 23.1564 18.0936C22.3359 17.2731 21.875 16.1603 21.875 15C21.8785 13.5452 22.2188 12.111 22.8695 10.8097C23.5201 9.5085 24.4632 8.37565 25.625 7.5V7.5ZM16.5625 9.375C17.1427 9.375 17.6991 9.60547 18.1093 10.0157C18.5195 10.4259 18.75 10.9823 18.75 11.5625C18.75 12.1427 18.5195 12.6991 18.1093 13.1093C17.6991 13.5195 17.1427 13.75 16.5625 13.75C15.6511 13.751 14.7774 14.1135 14.1329 14.7579C13.4885 15.4024 13.126 16.2761 13.125 17.1875C13.125 17.7677 12.8945 18.3241 12.4843 18.7343C12.0741 19.1445 11.5177 19.375 10.9375 19.375C10.3573 19.375 9.80094 19.1445 9.3907 18.7343C8.98047 18.3241 8.75 17.7677 8.75 17.1875C8.75234 15.1162 9.57619 13.1304 11.0408 11.6658C12.5054 10.2012 14.4912 9.37734 16.5625 9.375V9.375Z" fill="white"/>
<path d="M26.875 8.75H25.625V18.125H26.875V8.75Z" fill="white"/>
<path d="M24.375 11.875H23.125V16.25H24.375V11.875Z" fill="white"/>
<path d="M29.375 11.875H28.125V16.25H29.375V11.875Z" fill="white"/>
<path d="M37.7369 31.0367C37.4168 30.7086 37.0343 30.4478 36.6118 30.2698C36.1894 30.0917 35.7357 30 35.2773 30C34.8189 30 34.3651 30.0917 33.9427 30.2698C33.5203 30.4478 33.1378 30.7086 32.8177 31.0367C32.614 31.2464 32.3703 31.4131 32.101 31.5269C31.8317 31.6407 31.5423 31.6992 31.25 31.699C31.1604 31.6988 31.0709 31.6932 30.982 31.6821C34.3821 27.7045 36.2502 22.6437 36.25 17.4109V16.875C36.2494 15.7278 35.9335 14.6029 35.3367 13.6232C34.7399 12.6434 33.8853 11.8466 32.8662 11.3198L32.2923 12.4301C33.2885 12.9442 34.0831 13.778 34.5485 14.7978C35.014 15.8176 35.1233 16.9643 34.8589 18.0537C34.5945 19.143 33.9718 20.112 33.0906 20.805C32.2095 21.498 31.121 21.8748 30 21.875H20.5459C20.5985 21.6708 20.6251 21.4608 20.625 21.25V18.75C20.625 18.6679 20.6088 18.5866 20.5774 18.5108C20.546 18.435 20.5 18.3661 20.442 18.308L18.567 16.433C18.5089 16.375 18.44 16.329 18.3642 16.2975C18.2884 16.2661 18.2071 16.25 18.125 16.25C17.4622 16.2507 16.8267 16.5144 16.3581 16.983C15.8894 17.4517 15.6257 18.0872 15.625 18.75V21.25C15.6249 21.4608 15.6515 21.6708 15.7041 21.875H10C8.67437 21.8735 7.40347 21.3462 6.46611 20.4089C5.52875 19.4715 5.00149 18.2006 5 16.875C4.99535 15.7305 5.38796 14.6199 6.11086 13.7326L5.13914 12.9463C4.24135 14.059 3.75117 15.4453 3.75 16.875V17.4109C3.74997 23.2362 6.064 28.823 10.183 32.9422C10.3003 33.0593 10.4593 33.1251 10.625 33.125H22.5V31.875H10.8861C7.97855 28.8926 6.03638 25.1038 5.3125 21.0021C5.89778 21.6691 6.61869 22.2035 7.42705 22.5696C8.23541 22.9357 9.1126 23.1251 10 23.125H16.4741C16.9297 23.5277 17.5169 23.75 18.125 23.75C18.7331 23.75 19.3203 23.5277 19.7759 23.125H30C30.8874 23.1251 31.7646 22.9358 32.5729 22.5697C33.3813 22.2037 34.1022 21.6693 34.6875 21.0022C34.0233 24.7691 32.3297 28.2786 29.7941 31.1422C29.7559 31.1083 29.7184 31.0735 29.6823 31.0367C29.3622 30.7086 28.9797 30.4478 28.5572 30.2698C28.1348 30.0917 27.6811 30 27.2227 30C26.7643 30 26.3105 30.0917 25.8881 30.2698C25.4657 30.4478 25.0831 30.7086 24.763 31.0367C24.115 31.7031 23.7525 32.5959 23.7525 33.5254C23.7525 34.455 24.115 35.3478 24.763 36.0142C26.1902 37.4845 28.0749 38.426 30.1077 38.6839C32.1404 38.9419 34.2005 38.501 35.9497 37.4337L35.3002 36.3658C32.1885 38.258 28.222 37.7533 25.655 35.1385C25.235 34.7066 25.0001 34.1279 25.0001 33.5254C25.0001 32.923 25.235 32.3443 25.655 31.9124C25.8587 31.7028 26.1025 31.5362 26.3717 31.4224C26.641 31.3086 26.9303 31.25 27.2227 31.25C27.515 31.25 27.8043 31.3086 28.0736 31.4224C28.3429 31.5362 28.5866 31.7028 28.7903 31.9124C29.1104 32.2405 29.4929 32.5013 29.9154 32.6793C30.3378 32.8573 30.7915 32.949 31.2499 32.949C31.7083 32.949 32.1621 32.8573 32.5845 32.6793C33.0069 32.5013 33.3894 32.2405 33.7095 31.9124C33.9133 31.7028 34.157 31.5362 34.4263 31.4224C34.6955 31.3086 34.9849 31.25 35.2772 31.25C35.5695 31.25 35.8589 31.3086 36.1281 31.4224C36.3974 31.5362 36.6411 31.7028 36.8448 31.9124C37.2648 32.3443 37.4998 32.923 37.4998 33.5254C37.4998 34.1279 37.2648 34.7066 36.8448 35.1385C36.6275 35.3599 36.3976 35.5685 36.1563 35.7635L36.9415 36.7362C37.2202 36.5109 37.4858 36.2698 37.7368 36.014C38.3848 35.3477 38.7473 34.4549 38.7473 33.5254C38.7473 32.5959 38.3848 31.7031 37.7369 31.0367V31.0367ZM19.375 21.25C19.375 21.5815 19.2433 21.8994 19.0089 22.1339C18.7745 22.3683 18.4565 22.5 18.125 22.5C17.7935 22.5 17.4755 22.3683 17.2411 22.1339C17.0067 21.8994 16.875 21.5815 16.875 21.25V18.75C16.8754 18.4596 16.9767 18.1783 17.1616 17.9544C17.3465 17.7304 17.6035 17.5777 17.8886 17.5224L19.375 19.0088V21.25Z" fill="white"/>
<path d="M6.25 32.5H3.75C3.66792 32.5 3.58665 32.5162 3.51082 32.5476C3.43499 32.579 3.36609 32.625 3.30805 32.683L1.43305 34.558C1.37501 34.6161 1.32898 34.685 1.29757 34.7608C1.26616 34.8366 1.25 34.9179 1.25 35C1.25074 35.6628 1.51438 36.2983 1.98306 36.7669C2.45173 37.2356 3.08719 37.4993 3.75 37.5H6.25C6.91304 37.5 7.54893 37.2366 8.01777 36.7678C8.48661 36.2989 8.75 35.663 8.75 35C8.75 34.337 8.48661 33.7011 8.01777 33.2322C7.54893 32.7634 6.91304 32.5 6.25 32.5ZM6.25 36.25H3.75C3.45959 36.2496 3.17833 36.1483 2.95439 35.9634C2.73045 35.7785 2.57774 35.5215 2.52242 35.2364L4.00883 33.75H6.25C6.58152 33.75 6.89946 33.8817 7.13388 34.1161C7.3683 34.3505 7.5 34.6685 7.5 35C7.5 35.3315 7.3683 35.6495 7.13388 35.8839C6.89946 36.1183 6.58152 36.25 6.25 36.25Z" fill="white"/>
<path d="M14.0625 34.375H12.1875C11.6073 34.375 11.0509 34.6055 10.6407 35.0157C10.2305 35.4259 10 35.9823 10 36.5625C10 37.1427 10.2305 37.6991 10.6407 38.1093C11.0509 38.5195 11.6073 38.75 12.1875 38.75H14.0625C14.6427 38.75 15.1991 38.5195 15.6093 38.1093C16.0195 37.6991 16.25 37.1427 16.25 36.5625C16.25 35.9823 16.0195 35.4259 15.6093 35.0157C15.1991 34.6055 14.6427 34.375 14.0625 34.375V34.375ZM14.0625 37.5H12.1875C11.9389 37.5 11.7004 37.4012 11.5246 37.2254C11.3488 37.0496 11.25 36.8111 11.25 36.5625C11.25 36.3139 11.3488 36.0754 11.5246 35.8996C11.7004 35.7238 11.9389 35.625 12.1875 35.625H14.0625C14.3111 35.625 14.5496 35.7238 14.7254 35.8996C14.9012 36.0754 15 36.3139 15 36.5625C15 36.8111 14.9012 37.0496 14.7254 37.2254C14.5496 37.4012 14.3111 37.5 14.0625 37.5Z" fill="white"/>
<path d="M18.8572 6.73634C19.326 7.20518 19.9619 7.46858 20.625 7.46858C21.288 7.46858 21.9239 7.20518 22.3927 6.73634C22.8616 6.2675 23.125 5.63161 23.125 4.96857C23.125 4.30552 22.8616 3.66964 22.3927 3.20079L21.3573 2.1654C21.0678 1.87428 20.7234 1.64347 20.3441 1.48634C19.9648 1.32921 19.5581 1.24889 19.1475 1.25001H17.5312C17.3655 1.25001 17.2065 1.31586 17.0893 1.43307C16.9721 1.55028 16.9062 1.70925 16.9062 1.87501V3.49118C16.9051 3.90173 16.9854 4.30842 17.1426 4.68772C17.2997 5.06701 17.5305 5.41137 17.8216 5.70087L18.8572 6.73634ZM18.1562 2.50001H19.1473C19.3937 2.49933 19.6377 2.54752 19.8653 2.64179C20.0929 2.73607 20.2995 2.87455 20.4732 3.04923L21.5087 4.08462C21.6247 4.2007 21.7168 4.3385 21.7797 4.49016C21.8425 4.64182 21.8748 4.80437 21.8748 4.96853C21.8748 5.13269 21.8425 5.29524 21.7797 5.4469C21.7168 5.59856 21.6247 5.73636 21.5087 5.85243C21.2742 6.08684 20.9563 6.21853 20.6248 6.21853C20.2933 6.21853 19.9754 6.08684 19.7409 5.85243L18.7055 4.81689C18.5309 4.64322 18.3924 4.43663 18.2981 4.20907C18.2038 3.98151 18.1556 3.7375 18.1562 3.49118V2.50001Z" fill="white"/>
<path d="M12.1875 8.19988C12.4748 8.20039 12.7593 8.14415 13.0247 8.03439C13.2902 7.92462 13.5314 7.7635 13.7344 7.56027L15.0602 6.23449C15.2633 6.03135 15.4244 5.79019 15.5344 5.52477C15.6443 5.25936 15.7009 4.97489 15.7009 4.68761C15.7009 4.40033 15.6443 4.11586 15.5344 3.85045C15.4244 3.58504 15.2633 3.34388 15.0602 3.14074C14.857 2.9376 14.6159 2.77646 14.3504 2.66652C14.085 2.55658 13.8006 2.5 13.5133 2.5C13.226 2.5 12.9415 2.55658 12.6761 2.66652C12.4107 2.77646 12.1695 2.9376 11.9664 3.14074L10.6406 4.4666C10.3345 4.77239 10.1261 5.16212 10.0416 5.58646C9.9571 6.01079 10.0004 6.45065 10.166 6.85036C10.3316 7.25006 10.6121 7.59165 10.972 7.83188C11.3318 8.07211 11.7548 8.20018 12.1875 8.19988ZM11.5246 5.3505L12.8504 4.02472C12.9374 3.93728 13.0407 3.86785 13.1546 3.82042C13.2684 3.77298 13.3905 3.74848 13.5138 3.74831C13.6371 3.74814 13.7593 3.7723 13.8733 3.81942C13.9872 3.86653 14.0908 3.93567 14.178 4.02288C14.2652 4.11008 14.3344 4.21364 14.3815 4.32761C14.4286 4.44158 14.4528 4.56373 14.4526 4.68706C14.4525 4.81038 14.428 4.93247 14.3805 5.04631C14.3331 5.16016 14.2637 5.26353 14.1762 5.3505L12.8504 6.67628C12.6741 6.84973 12.4364 6.94649 12.1891 6.94549C11.9418 6.94448 11.7049 6.84579 11.53 6.67091C11.3551 6.49603 11.2564 6.25913 11.2554 6.01181C11.2544 5.7645 11.3512 5.5268 11.5246 5.3505V5.3505Z" fill="white"/>
</svg>
