<svg width="40" height="40" viewBox="0 0 40 40" fill="none" xmlns="http://www.w3.org/2000/svg">
<path d="M34.1422 5.85781C30.3646 2.08039 25.3422 0 20 0C14.6578 0 9.63539 2.08039 5.85781 5.85781C2.08039 9.63531 0 14.6578 0 20C0 23.3979 0.868906 26.7556 2.51281 29.71C2.67016 29.9927 3.02695 30.0945 3.30969 29.9371C3.5925 29.7798 3.69414 29.423 3.5368 29.1402C1.98969 26.3596 1.17188 23.199 1.17188 20C1.17188 14.9708 3.13031 10.2427 6.68648 6.68648C10.2427 3.13031 14.9708 1.17188 20 1.17188C25.0291 1.17188 29.7573 3.13031 33.3134 6.68648C36.8697 10.2427 38.8281 14.9709 38.8281 20C38.8281 25.0291 36.8697 29.7573 33.3134 33.3135C29.7573 36.8697 25.0291 38.8281 20 38.8281C14.1959 38.8281 8.80359 36.2105 5.20555 31.6465C5.00523 31.3924 4.6368 31.3487 4.38266 31.5491C4.12852 31.7495 4.08492 32.1179 4.28523 32.372C8.10695 37.2197 13.8347 40 20 40C25.3422 40 30.3646 37.9196 34.1422 34.1422C37.9196 30.3647 40 25.3422 40 20C40 14.6578 37.9196 9.63531 34.1422 5.85781V5.85781Z" fill="white"/>
<path d="M31.7262 9.57004C28.7925 8.46122 25.7479 8.24497 23.1531 8.96153C20.921 9.5777 19.0287 11.0397 17.9613 12.9725C16.9521 14.8003 16.7864 16.8201 17.5184 18.3754C17.9729 19.3414 18.7256 20.1353 19.6359 20.6798C19.6275 20.8842 19.6227 21.0935 19.6227 21.3094V26.0684C19.3148 25.5911 18.9597 25.1348 18.5697 24.7082C18.9258 23.8157 18.9784 22.8244 18.6938 21.8849C18.3456 20.7353 17.5806 19.8295 16.4819 19.2656C15.0087 18.5095 12.9714 18.422 11.1649 19.0374C8.28079 20.0198 6.98986 21.9186 6.93634 21.999C6.82447 22.1668 6.80681 22.3805 6.8897 22.5644C6.97251 22.7484 7.14415 22.8768 7.34408 22.9043C8.62548 23.0807 9.29611 23.8946 10.0726 24.8368C10.9713 25.9274 11.9899 27.1635 14.0813 27.4142C14.2499 27.4344 14.4181 27.4444 14.5856 27.4444C15.8345 27.4444 17.0287 26.8898 17.8538 25.9064C17.8881 25.8654 17.9198 25.823 17.9524 25.7811C18.6901 26.6545 19.257 27.6477 19.5325 28.6493C19.5516 28.7186 19.5831 28.781 19.6228 28.8361V32.4225C19.6228 32.7462 19.8852 33.0085 20.2088 33.0085C20.5324 33.0085 20.7947 32.7462 20.7947 32.4225V21.3096C20.7947 21.2757 20.7952 21.2426 20.7955 21.2091C21.3506 21.3907 21.9363 21.4879 22.5297 21.4879C22.688 21.4879 22.847 21.4809 23.006 21.4668C25.2298 21.2697 27.1061 19.699 28.0253 17.2653C28.1056 17.0526 28.1841 16.8232 28.2656 16.564C28.3624 16.2552 28.1906 15.9264 27.8819 15.8295C27.5731 15.7326 27.2443 15.9045 27.1474 16.2132C27.0728 16.4509 27.0014 16.6597 26.929 16.8513C26.1726 18.854 24.6674 20.1431 22.9026 20.2995C22.2057 20.3614 21.5017 20.2404 20.859 19.9765C21.2474 16.0964 23.2741 14.9968 23.377 14.9434C23.6644 14.7991 23.782 14.4498 23.6395 14.1608C23.4965 13.8706 23.1456 13.751 22.8549 13.8943C22.7395 13.9511 20.3541 15.1773 19.7573 19.3343C19.2574 18.9404 18.8461 18.4446 18.5788 17.8765C18.0065 16.6604 18.1592 15.0388 18.9874 13.539C19.9031 11.8805 21.5352 10.6239 23.4652 10.0911C25.5342 9.51997 27.934 9.60762 30.3177 10.3283C29.5014 11.0457 28.8559 11.8429 28.3923 12.7077C28.2394 12.9929 28.3466 13.348 28.6319 13.5009C28.72 13.5481 28.8148 13.5705 28.9081 13.5705C29.1172 13.5705 29.3195 13.4584 29.4251 13.2613C29.9559 12.2711 30.7757 11.3752 31.8619 10.5984C32.0688 10.4593 32.1688 10.2114 32.1137 9.98098C32.0415 9.67934 31.7437 9.57583 31.7262 9.57004V9.57004ZM14.2207 26.2507C12.5956 26.0559 11.8093 25.1018 10.977 24.0916C10.3308 23.3075 9.61626 22.4403 8.48275 21.9959C9.04767 21.4413 10.0462 20.6565 11.5427 20.1467C13.0589 19.6301 14.7465 19.6922 15.9468 20.3081C16.7678 20.7295 17.3148 21.3743 17.5724 22.2247C17.7292 22.7424 17.7439 23.2825 17.6287 23.7972C16.4052 22.7496 14.9694 21.9994 13.5606 21.7707C13.2407 21.7193 12.9402 21.9358 12.8883 22.2553C12.8364 22.5747 13.0534 22.8756 13.3728 22.9275C14.6656 23.1373 16.0121 23.8901 17.1306 24.9229C17.0757 25.0014 17.0184 25.0788 16.9559 25.1532C16.2653 25.9764 15.2681 26.3764 14.2207 26.2507V26.2507Z" fill="white"/>
</svg>
