<svg width="76" height="76" viewBox="0 0 76 76" fill="none" xmlns="http://www.w3.org/2000/svg">
<path d="M64.8702 11.1298C57.6928 3.95274 48.1502 0 38 0C27.8498 0 18.3072 3.95274 11.1298 11.1298C3.95274 18.3071 0 27.8498 0 38C0 44.456 1.65092 50.8357 4.77434 56.449C5.0733 56.9862 5.75121 57.1796 6.28841 56.8805C6.82575 56.5816 7.01887 55.9036 6.71991 55.3664C3.78041 50.0833 2.22656 44.0781 2.22656 38C2.22656 28.4445 5.94759 19.461 12.7043 12.7043C19.461 5.94759 28.4445 2.22656 38 2.22656C47.5554 2.22656 56.539 5.94759 63.2955 12.7043C70.0524 19.461 73.7734 28.4446 73.7734 38C73.7734 47.5554 70.0524 56.539 63.2955 63.2957C56.539 70.0524 47.5554 73.7734 38 73.7734C26.9723 73.7734 16.7268 68.8 9.89054 60.1283C9.50994 59.6456 8.80991 59.5625 8.32705 59.9434C7.84418 60.324 7.76135 61.024 8.14195 61.5069C15.4032 70.7174 26.2859 76 38 76C48.1502 76 57.6928 72.0473 64.8702 64.8702C72.0473 57.6929 76 48.1502 76 38C76 27.8498 72.0473 18.3071 64.8702 11.1298V11.1298Z" fill="white"/>
<path d="M60.2797 18.1832C54.7058 16.0765 48.921 15.6656 43.991 17.0271C39.7499 18.1978 36.1545 20.9755 34.1265 24.6478C32.209 28.1207 31.8942 31.9584 33.2849 34.9135C34.1485 36.7488 35.5787 38.2572 37.3083 39.2918C37.2923 39.6801 37.2831 40.0778 37.2831 40.488V49.5301C36.6981 48.6233 36.0234 47.7563 35.2824 46.9458C35.959 45.2499 36.059 43.3665 35.5183 41.5814C34.8566 39.3972 33.4032 37.6762 31.3156 36.6048C28.5165 35.1682 24.6457 35.0019 21.2132 36.1712C15.7335 38.0378 13.2807 41.6456 13.179 41.7982C12.9665 42.1171 12.9329 42.5231 13.0904 42.8725C13.2478 43.2221 13.5739 43.4661 13.9537 43.5184C16.3884 43.8536 17.6626 45.3998 19.1379 47.1901C20.8454 49.2622 22.7807 51.6108 26.7544 52.0871C27.0747 52.1255 27.3945 52.1445 27.7126 52.1445C30.0856 52.1445 32.3545 51.0908 33.9221 49.2223C33.9873 49.1445 34.0476 49.0639 34.1096 48.9843C35.5112 50.6437 36.5882 52.5308 37.1118 54.4337C37.148 54.5656 37.2078 54.684 37.2834 54.7888V61.603C37.2834 62.218 37.7818 62.7163 38.3966 62.7163C39.0116 62.7163 39.5099 62.218 39.5099 61.603V40.4883C39.5099 40.4239 39.511 40.3611 39.5114 40.2975C40.5662 40.6424 41.679 40.8271 42.8064 40.8271C43.1072 40.8271 43.4094 40.8139 43.7114 40.787C47.9366 40.4126 51.5016 37.4283 53.2481 32.8042C53.4006 32.4001 53.5499 31.9643 53.7046 31.4717C53.8886 30.885 53.5622 30.2603 52.9756 30.0762C52.389 29.8921 51.7642 30.2187 51.5801 30.8052C51.4384 31.2569 51.3027 31.6535 51.1651 32.0176C49.7279 35.8228 46.8681 38.272 43.5149 38.5692C42.1909 38.6868 40.8531 38.4568 39.6321 37.9556C40.3701 30.5833 44.2207 28.494 44.4164 28.3926C44.9623 28.1184 45.1857 27.4548 44.9151 26.9057C44.6433 26.3543 43.9766 26.127 43.4244 26.3992C43.2051 26.5073 38.6727 28.837 37.5388 36.7354C36.5891 35.9868 35.8076 35.0448 35.2998 33.9656C34.2123 31.6548 34.5025 28.5739 36.076 25.7242C37.816 22.5731 40.917 20.1855 44.5838 19.1733C48.515 18.0881 53.0746 18.2546 57.6036 19.624C56.0527 20.9871 54.8261 22.5016 53.9453 24.1448C53.6548 24.6866 53.8586 25.3614 54.4006 25.6519C54.568 25.7415 54.7481 25.7841 54.9255 25.7841C55.3227 25.7841 55.707 25.5711 55.9077 25.1966C56.9161 23.3153 58.4739 21.613 60.5376 20.1371C60.9308 19.8729 61.1206 19.4018 61.016 18.964C60.8788 18.3909 60.313 18.1942 60.2797 18.1832V18.1832ZM27.0194 49.8766C23.9316 49.5064 22.4377 47.6935 20.8562 45.7742C19.6285 44.2843 18.2709 42.6367 16.1172 41.7924C17.1906 40.7386 19.0877 39.2474 21.9312 38.2788C24.8119 37.2974 28.0183 37.4154 30.2989 38.5855C31.8589 39.3862 32.8981 40.6112 33.3875 42.227C33.6855 43.2107 33.7134 44.2368 33.4945 45.2149C31.17 43.2243 28.4418 41.799 25.7651 41.3646C25.1574 41.2667 24.5863 41.6782 24.4878 42.2852C24.3892 42.892 24.8014 43.4638 25.4084 43.5623C27.8646 43.961 30.423 45.3914 32.5481 47.3536C32.4439 47.5029 32.3349 47.6499 32.2162 47.7912C30.9041 49.3553 29.0095 50.1153 27.0194 49.8766V49.8766Z" fill="white"/>
</svg>
