<svg width="40" height="40" viewBox="0 0 40 40" fill="none" xmlns="http://www.w3.org/2000/svg">
<g clip-path="url(#clip0)">
<path d="M28.3919 12.5779H29.1619C29.4855 12.5779 29.7478 12.3155 29.7478 11.992C29.7478 11.6684 29.4855 11.406 29.1619 11.406H27.9083C28.2259 10.6347 28.392 9.80461 28.392 8.96086V7.79141H29.162C29.4856 7.79141 29.7479 7.52906 29.7479 7.20547C29.7479 6.88188 29.4856 6.61953 29.162 6.61953H27.9477C28.2393 5.87602 28.3919 5.07992 28.3919 4.27359V2.98562C28.3919 2.40484 27.9194 1.93234 27.3387 1.93234H25.0316C23.3071 1.93234 21.7405 2.61703 20.586 3.72727V0.585938C20.586 0.262344 20.3237 0 20.0001 0C19.6764 0 19.4141 0.262344 19.4141 0.585938V3.46867C18.2675 2.48773 16.7996 1.93234 15.2458 1.93234C14.9221 1.93234 14.6598 2.19469 14.6598 2.51828C14.6598 2.84188 14.9221 3.10422 15.2458 3.10422C16.9085 3.10422 18.4516 3.88164 19.442 5.20031C19.0321 5.92445 18.759 6.73531 18.6575 7.59828C17.6518 6.96711 16.4755 6.61953 15.2458 6.61953H13.6098C13.2477 5.89508 13.0573 5.0907 13.0573 4.27359V3.09219C13.3241 3.03734 13.5246 2.80125 13.5246 2.51828C13.5246 2.19469 13.2623 1.93234 12.9387 1.93234H12.902C12.8652 1.93234 12.8294 1.9357 12.7945 1.94211C12.2818 2.01258 11.8854 2.45367 11.8854 2.98555V4.27352C11.8854 5.07992 12.038 5.87602 12.3298 6.61945H10.8381C10.5144 6.61945 10.2522 6.8818 10.2522 7.20539C10.2522 7.52898 10.5144 7.79133 10.8381 7.79133H11.8854V8.9607C11.8854 9.8007 12.0517 10.6342 12.3689 11.4059H10.838C10.5144 11.4059 10.2521 11.6682 10.2521 11.9918C10.2521 12.3154 10.5144 12.5777 10.838 12.5777H11.8853V13.7471C11.8853 14.5905 12.0512 15.4209 12.3689 16.1923H10.838C10.5143 16.1923 10.252 16.4546 10.252 16.7782C10.252 17.1018 10.5143 17.3641 10.838 17.3641H11.8852V18.5335C11.8852 19.3757 12.0509 20.207 12.3684 20.9787H10.8379C10.5142 20.9787 10.252 21.241 10.252 21.5646C10.252 21.8882 10.5142 22.1505 10.8379 22.1505H11.8852V23.3199C11.8852 24.162 12.0509 24.9934 12.3684 25.7651H10.8379C10.5142 25.7651 10.252 26.0274 10.252 26.351C10.252 26.6746 10.5142 26.937 10.8379 26.937H11.8852V28.1063C11.8852 31.6462 14.765 34.5261 18.3049 34.5261H19.4141V39.4141C19.4141 39.7377 19.6763 40 20 40C20.3237 40 20.5859 39.7377 20.5859 39.4141V34.5262H21.9721C25.512 34.5262 28.3919 31.6462 28.3919 28.1064V26.937H29.1619C29.4855 26.937 29.7478 26.6747 29.7478 26.3511C29.7478 26.0275 29.4855 25.7652 29.1619 25.7652H27.9087C28.2262 24.9935 28.3919 24.1622 28.3919 23.32V22.1506H29.1619C29.4855 22.1506 29.7478 21.8883 29.7478 21.5647C29.7478 21.2411 29.4855 20.9788 29.1619 20.9788H27.9084C28.2259 20.2072 28.3919 19.3766 28.3919 18.5336V17.3642H29.1619C29.4855 17.3642 29.7478 17.1019 29.7478 16.7783C29.7478 16.4547 29.4855 16.1923 29.1619 16.1923H27.9086C28.2259 15.4206 28.392 14.5884 28.392 13.7472V12.5779H28.3919ZM27.22 13.7473C27.22 14.6009 27.0116 15.443 26.6165 16.1924H25.0315C23.0742 16.1924 21.3199 17.0739 20.1414 18.4595C20.0272 18.3251 19.9076 18.1961 19.7836 18.0723V17.8259C19.7836 14.9321 22.1378 12.578 25.0315 12.578H27.22V13.7473ZM27.22 8.96086C27.22 9.81695 27.0118 10.6556 26.6162 11.406H25.0315C23.0745 11.406 21.3204 12.2873 20.142 13.6726C20.0275 13.5375 19.9077 13.4082 19.7837 13.2839V13.0394C19.7837 10.1457 22.1379 7.79148 25.0316 7.79148H27.2201V8.96086H27.22ZM25.0315 3.10422H27.22V4.27359C27.22 5.0907 27.0297 5.895 26.6675 6.61953H25.0315C23.0745 6.61953 21.3204 7.50078 20.142 8.88602C20.0275 8.75094 19.9077 8.62164 19.7836 8.49734V8.35203C19.7836 5.45844 22.1378 3.10422 25.0315 3.10422V3.10422ZM15.2457 7.79141C16.9084 7.79141 18.4516 8.56875 19.442 9.8875C19.0174 10.6374 18.7381 11.4798 18.6457 12.3773C17.6426 11.7508 16.4706 11.4059 15.2456 11.4059H13.661C13.2662 10.6574 13.0572 9.81344 13.0572 8.96078V7.79141H15.2457ZM15.2457 12.5779C16.9084 12.5779 18.4516 13.3552 19.442 14.674C19.0166 15.4252 18.737 16.2692 18.6452 17.1684C17.6384 16.5401 16.4634 16.1925 15.2457 16.1925H13.6612C13.2658 15.4421 13.0573 14.603 13.0573 13.7473V12.578H15.2457V12.5779ZM15.2457 17.3643C16.8965 17.3643 18.4518 18.1448 19.4419 19.4605C19.017 20.211 18.7376 21.0541 18.6454 21.9525C17.6407 21.3251 16.4676 20.9788 15.2456 20.9788H13.661C13.2657 20.2288 13.0572 19.3883 13.0572 18.5337V17.3643H15.2457ZM15.2457 22.1506C16.9034 22.1506 18.4518 22.9298 19.4423 24.2477C19.0131 25.0088 18.7377 25.8567 18.6459 26.7416C17.639 26.113 16.4637 25.7652 15.2457 25.7652H13.6611C13.2658 25.0152 13.0573 24.1746 13.0573 23.32V22.1506H15.2457ZM13.0573 28.1065V26.9371H15.2458C16.8966 26.9371 18.4519 27.7175 19.442 29.0333C18.9145 29.9651 18.6118 31.04 18.6118 32.185V33.3544H18.3052C15.4116 33.3543 13.0573 31.0002 13.0573 28.1065ZM27.22 28.1065C27.22 31.0002 24.8658 33.3544 21.9721 33.3544H19.7836V32.185C19.7836 29.2913 22.1378 26.9371 25.0315 26.9371H27.22V28.1065ZM27.22 18.5336C27.22 19.389 27.0115 20.2284 26.6159 20.9788H25.0315C24.745 20.9788 24.4566 20.9979 24.1741 21.0356C23.8533 21.0784 23.628 21.3732 23.6709 21.694C23.7137 22.0148 24.0091 22.2401 24.3291 22.1972C24.5605 22.1662 24.7967 22.1506 25.0315 22.1506H27.22V23.32C27.22 24.1746 27.0115 25.0151 26.6162 25.7652H25.0316C23.0743 25.7652 21.32 26.6466 20.1415 28.0323C20.0268 27.8973 19.9068 27.7678 19.7823 27.6436C19.7827 27.6344 19.7837 27.6253 19.7837 27.6159V27.3985C19.7837 25.5258 20.7933 23.7815 22.4185 22.8463C22.6991 22.6849 22.7955 22.3266 22.6342 22.0462C22.4729 21.7657 22.1147 21.6691 21.8341 21.8305C21.1829 22.2053 20.613 22.6868 20.1405 23.2448C20.0264 23.1105 19.9075 22.9812 19.7837 22.8576V22.612C19.7837 19.7184 22.138 17.3641 25.0316 17.3641H27.2202V18.5336H27.22Z" fill="white"/>
</g>
<defs>
<clipPath id="clip0">
<rect width="40" height="40" fill="white"/>
</clipPath>
</defs>
</svg>
