<svg width="76" height="76" viewBox="0 0 76 76" fill="none" xmlns="http://www.w3.org/2000/svg">
<g clip-path="url(#clip0)">
<path d="M53.9446 23.898H55.4076C56.0225 23.898 56.5208 23.3995 56.5208 22.7847C56.5208 22.1699 56.0225 21.6714 55.4076 21.6714H53.0257C53.6291 20.2059 53.9447 18.6288 53.9447 17.0256V14.8037H55.4077C56.0227 14.8037 56.521 14.3052 56.521 13.6904C56.521 13.0756 56.0227 12.5771 55.4077 12.5771H53.1005C53.6547 11.1644 53.9446 9.65185 53.9446 8.11983V5.67269C53.9446 4.5692 53.0468 3.67145 51.9435 3.67145H47.56C44.2835 3.67145 41.307 4.97236 39.1134 7.0818V1.11328C39.1134 0.498453 38.6151 0 38.0001 0C37.3852 0 36.8869 0.498453 36.8869 1.11328V6.59048C34.7082 4.7267 31.9193 3.67145 28.967 3.67145C28.352 3.67145 27.8537 4.16991 27.8537 4.78473C27.8537 5.39956 28.352 5.89802 28.967 5.89802C32.1262 5.89802 35.0581 7.37512 36.9399 9.88059C36.161 11.2565 35.6421 12.7971 35.4492 14.4367C33.5384 13.2375 31.3034 12.5771 28.967 12.5771H25.8587C25.1705 11.2006 24.8089 9.67234 24.8089 8.11983V5.87516C25.3157 5.77095 25.6968 5.32238 25.6968 4.78473C25.6968 4.16991 25.1984 3.67145 24.5835 3.67145H24.5137C24.4439 3.67145 24.3758 3.67784 24.3096 3.69001C23.3354 3.8239 22.5822 4.66198 22.5822 5.67254V8.11968C22.5822 9.65185 22.8723 11.1644 23.4265 12.577H20.5924C19.9775 12.577 19.4792 13.0754 19.4792 13.6902C19.4792 14.3051 19.9775 14.8035 20.5924 14.8035H22.5822V17.0253C22.5822 18.6213 22.8983 20.205 23.5009 21.6711H20.5923C19.9773 21.6711 19.479 22.1696 19.479 22.7844C19.479 23.3992 19.9773 23.8977 20.5923 23.8977H22.5821V26.1195C22.5821 27.7219 22.8972 29.2996 23.5009 30.7653H20.5921C19.9772 30.7653 19.4789 31.2638 19.4789 31.8786C19.4789 32.4934 19.9772 32.9919 20.5921 32.9919H22.5819V35.2137C22.5819 36.8138 22.8968 38.3934 23.4999 39.8595H20.592C19.977 39.8595 19.4787 40.3579 19.4787 40.9728C19.4787 41.5876 19.977 42.086 20.592 42.086H22.5818V44.3079C22.5818 45.9079 22.8966 47.4875 23.4999 48.9536H20.592C19.977 48.9536 19.4787 49.4521 19.4787 50.0669C19.4787 50.6818 19.977 51.1802 20.592 51.1802H22.5818V53.402C22.5818 60.1277 28.0535 65.5996 34.7793 65.5996H36.8867V74.8867C36.8867 75.5015 37.385 76 38 76C38.615 76 39.1133 75.5015 39.1133 74.8867V65.5997H41.747C48.4729 65.5997 53.9446 60.1279 53.9446 53.4022V51.1804H55.4076C56.0225 51.1804 56.5208 50.6819 56.5208 50.0671C56.5208 49.4523 56.0225 48.9538 55.4076 48.9538H53.0266C53.6297 47.4877 53.9446 45.9082 53.9446 44.308V42.0862H55.4076C56.0225 42.0862 56.5208 41.5877 56.5208 40.9729C56.5208 40.3581 56.0225 39.8596 55.4076 39.8596H53.0259C53.6291 38.3937 53.9446 36.8155 53.9446 35.2138V32.992H55.4076C56.0225 32.992 56.5208 32.4936 56.5208 31.8787C56.5208 31.2639 56.0225 30.7655 55.4076 30.7655H53.0263C53.6293 29.2992 53.9447 27.7179 53.9447 26.1197V23.898H53.9446ZM51.718 26.1198C51.718 27.7416 51.322 29.3416 50.5713 30.7656H47.5598C43.841 30.7656 40.5078 32.4404 38.2687 35.0731C38.0517 34.8176 37.8244 34.5726 37.5888 34.3375V33.8691C37.5888 28.371 42.0618 23.8981 47.5598 23.8981H51.718V26.1198ZM51.718 17.0256C51.718 18.6522 51.3224 20.2457 50.5709 21.6714H47.5598C43.8416 21.6714 40.5087 23.3458 38.2697 25.9779C38.0522 25.7213 37.8247 25.4756 37.589 25.2394V24.7748C37.589 19.2768 42.062 14.8038 47.56 14.8038H51.7181V17.0256H51.718ZM47.5598 5.89802H51.718V8.11983C51.718 9.67234 51.3564 11.2005 50.6682 12.5771H47.5598C43.8416 12.5771 40.5087 14.2515 38.2697 16.8834C38.0522 16.6268 37.8247 16.3811 37.5888 16.145V15.8689C37.5888 10.371 42.0618 5.89802 47.5598 5.89802V5.89802ZM28.9668 14.8037C32.1259 14.8037 35.0581 16.2806 36.9397 18.7862C36.1331 20.2111 35.6024 21.8117 35.4268 23.517C33.5209 22.3265 31.2942 21.6713 28.9667 21.6713H25.9559C25.2057 20.2491 24.8087 18.6455 24.8087 17.0255V14.8037H28.9668ZM28.9668 23.898C32.1259 23.898 35.058 25.3749 36.9397 27.8806C36.1316 29.3078 35.6004 30.9115 35.4258 32.62C33.513 31.4261 31.2805 30.7658 28.9668 30.7658H25.9564C25.205 29.34 24.8089 27.7458 24.8089 26.12V23.8981H28.9668V23.898ZM28.9668 32.9922C32.1033 32.9922 35.0584 34.4751 36.9396 36.9749C36.1324 38.4009 35.6014 40.0029 35.4262 41.7098C33.5173 40.5176 31.2884 39.8598 28.9667 39.8598H25.9559C25.2048 38.4348 24.8087 36.8377 24.8087 35.214V32.9922H28.9668ZM28.9668 42.0862C32.1165 42.0862 35.0584 43.5666 36.9403 46.0705C36.1249 47.5168 35.6015 49.1278 35.4273 50.8091C33.5141 49.6146 31.2811 48.9538 28.9668 48.9538H25.9561C25.205 47.5288 24.8088 45.9318 24.8088 44.308V42.0862H28.9668ZM24.8089 53.4023V51.1805H28.967C32.1035 51.1805 35.0586 52.6633 36.9399 55.1632C35.9376 56.9336 35.3624 58.976 35.3624 61.1515V63.3733H34.7799C29.282 63.3732 24.8089 58.9003 24.8089 53.4023ZM51.718 53.4023C51.718 58.9003 47.245 63.3733 41.747 63.3733H37.5888V61.1515C37.5888 55.6535 42.0618 51.1805 47.5598 51.1805H51.718V53.4023ZM51.718 35.2138C51.718 36.8391 51.3218 38.434 50.5703 39.8596H47.5598C47.0155 39.8596 46.4675 39.896 45.9307 39.9677C45.3212 40.049 44.8931 40.6091 44.9746 41.2186C45.056 41.8282 45.6174 42.2561 46.2254 42.1747C46.6649 42.1159 47.1138 42.0862 47.5598 42.0862H51.718V44.308C51.718 45.9318 51.3218 47.5286 50.5709 48.9538H47.56C43.8412 48.9538 40.508 50.6286 38.2688 53.2613C38.0509 53.0048 37.8229 52.7588 37.5863 52.5228C37.5872 52.5053 37.589 52.4881 37.589 52.4703V52.0572C37.589 48.499 39.5072 45.1848 42.5952 43.4079C43.1282 43.1014 43.3115 42.4206 43.005 41.8877C42.6985 41.3548 42.0179 41.1714 41.4849 41.478C40.2475 42.1901 39.1648 43.1049 38.2669 44.1652C38.0502 43.9099 37.8242 43.6644 37.5891 43.4294V42.9629C37.5891 37.4649 42.0621 32.9919 47.5601 32.9919H51.7183V35.2138H51.718Z" fill="white"/>
</g>
<defs>
<clipPath id="clip0">
<rect width="76" height="76" fill="white"/>
</clipPath>
</defs>
</svg>
